<svg width="16" height="16" viewBox="0 0 16 16" fill="none" xmlns="http://www.w3.org/2000/svg">
<path d="M8.21875 14.8125C8.03125 14.9792 7.85417 14.9792 7.6875 14.8125L1.15625 8.25C0.96875 8.08333 0.96875 7.91667 1.15625 7.75L7.6875 1.1875C7.85417 1.02083 8.03125 1.02083 8.21875 1.1875L8.84375 1.8125C9.01042 1.97917 9.01042 2.15625 8.84375 2.34375L4 7.1875H14.6562C14.9062 7.1875 15.0312 7.3125 15.0312 7.5625V8.4375C15.0312 8.6875 14.9062 8.8125 14.6562 8.8125H4L8.84375 13.6562C9.01042 13.8438 9.01042 14.0208 8.84375 14.1875L8.21875 14.8125Z"/>
</svg>
