<svg width="24" height="19" viewBox="0 0 24 19" fill="none" xmlns="http://www.w3.org/2000/svg">
<path d="M9.53978 15.4131L8.66991 16.2775C7.88225 17.0602 6.81396 17.4999 5.70004 17.4999C4.58612 17.4999 3.51782 17.0602 2.73016 16.2775C1.9425 15.4948 1.5 14.4332 1.5 13.3263C1.5 12.2194 1.9425 11.1578 2.73016 10.3751L7.18498 5.94732C7.93185 5.20346 8.9336 4.76693 9.99019 4.7249C11.0468 4.68287 12.0804 5.03844 12.8848 5.72059C13.6891 6.40275 14.2049 7.36129 14.3291 8.4048C14.4534 9.44831 14.1769 10.5 13.555 11.3498" stroke="#6E788C" stroke-width="1.5" stroke-linecap="round" stroke-linejoin="round"/>
<path d="M14.6299 3.41803L15.3299 2.72243C16.1176 1.93972 17.1859 1.5 18.2998 1.5C19.4137 1.5 20.482 1.93972 21.2697 2.72243C22.0573 3.50514 22.4999 4.56672 22.4999 5.67364C22.4999 6.78056 22.0573 7.84214 21.2697 8.62485L16.8149 13.0517C16.0678 13.7952 15.0661 14.2314 14.0096 14.2732C12.9531 14.315 11.9196 13.9592 11.1155 13.277C10.3114 12.5948 9.79579 11.6363 9.67164 10.5929C9.5475 9.54952 9.82394 8.49797 10.4458 7.64822" stroke="#6E788C" stroke-width="1.5" stroke-linecap="round" stroke-linejoin="round"/>
</svg>
