<svg width="186" height="125" viewBox="0 0 186 125" fill="none" xmlns="http://www.w3.org/2000/svg">
<g opacity="0.25">
<path fill-rule="evenodd" clip-rule="evenodd" d="M32.241 53.425C32.5859 27.1106 53.9968 5.02502 80.396 5.02502C97.212 5.02502 112.999 14.1152 121.717 27.2164C125.553 24.6664 130.151 23.175 135.1 23.175C148.465 23.175 159.3 34.0106 159.3 47.375C159.3 47.8379 159.258 48.2916 159.231 48.7484C159.261 49.302 159.3 49.8555 159.3 50.4C171.367 56.1838 180.475 69.9325 180.475 84.1439C180.475 103.852 164.352 119.975 144.644 119.975H70.5103C70.0928 119.975 69.6875 119.927 69.2731 119.912C68.8617 119.927 68.4563 119.975 68.0389 119.975H38.3848C20.0382 119.975 5.02509 104.965 5.02509 86.6153C5.02509 70.3681 16.8044 56.3351 32.241 53.425Z" fill="white" fill-opacity="0.5"/>
<mask id="path-2-outside-1_136_5021" maskUnits="userSpaceOnUse" x="-0.5" y="0" width="186" height="125" fill="black">
<rect fill="white" x="-0.5" width="186" height="125"/>
<path fill-rule="evenodd" clip-rule="evenodd" d="M134.73 20.1525C130.352 20.2108 126.222 21.303 122.575 23.1962C113.064 10.5615 97.244 2.00004 80.3961 2.00004C53.0778 2.00004 30.893 24.1573 29.303 50.987C13.6164 55.0926 2.00015 69.7647 2.00015 86.6154C2.00015 106.636 18.3677 123 38.3849 123H68.0389C68.3568 123 68.6486 122.982 68.8643 122.967L69.007 122.957C69.1137 122.95 69.1965 122.944 69.2737 122.94C69.294 122.941 69.3147 122.942 69.3361 122.943C69.3975 122.947 69.4646 122.952 69.545 122.957L69.685 122.967C69.9007 122.982 70.1926 123 70.5104 123H144.644C166.023 123 183.5 105.522 183.5 84.1439C183.5 69.4034 174.524 55.2202 162.277 48.528C162.3 48.1947 162.325 47.7701 162.325 47.375C162.325 36.7094 156.191 27.4755 147.258 23.0092C143.599 21.1796 139.47 20.15 135.1 20.15C134.977 20.15 134.854 20.1509 134.73 20.1525ZM123.246 29.8273C117.622 33.6341 113.925 40.0732 113.925 47.375C113.925 49.0457 112.571 50.4 110.9 50.4C109.229 50.4 107.875 49.0457 107.875 47.375C107.875 39.0312 111.629 31.5636 117.541 26.5695C109.104 15.5346 95.1446 8.05004 80.3961 8.05004C56.8657 8.05004 37.4603 26.8636 35.4361 50.064C35.879 50.0326 36.3542 50.0034 36.8569 49.9784C39.8177 49.8311 43.8213 49.8256 47.8293 50.4343C49.3937 50.6719 50.5106 52.075 50.3915 53.6528C50.2723 55.2306 48.9574 56.45 47.3751 56.45H32.5309C18.6661 59.2013 8.05016 71.9078 8.05016 86.6154C8.05016 103.294 21.7087 116.95 38.3849 116.95H68.0389C68.1386 116.95 68.2581 116.944 68.4523 116.931L68.5437 116.925L68.5444 116.925C68.7105 116.913 68.9391 116.897 69.162 116.889C69.2358 116.886 69.3097 116.886 69.3835 116.889C69.6085 116.897 69.8383 116.913 70.0053 116.925C70.0382 116.927 70.0687 116.929 70.0963 116.931C70.2911 116.944 70.4107 116.95 70.5104 116.95H144.644C162.681 116.95 177.45 102.181 177.45 84.1439C177.45 71.1236 169.034 58.4204 157.993 53.1279C156.943 52.6248 156.275 51.564 156.275 50.4001C156.275 50.0539 156.256 49.7137 156.231 49.2767L156.231 49.2765C156.224 49.1626 156.217 49.0422 156.21 48.9135C156.204 48.7985 156.204 48.6833 156.211 48.5684C156.222 48.3783 156.233 48.2224 156.242 48.087L156.242 48.0869C156.261 47.8096 156.274 47.6179 156.275 47.3936C156.275 47.3874 156.275 47.3812 156.275 47.375C156.275 38.6047 150.942 31.079 143.342 27.8642C140.809 26.7926 138.024 26.2 135.1 26.2C135.083 26.2 135.066 26.2001 135.049 26.2001C134.872 26.2005 134.695 26.2031 134.518 26.2079C130.409 26.319 126.599 27.6036 123.392 29.7355C123.344 29.7677 123.295 29.7983 123.246 29.8273Z"/>
</mask>
<path fill-rule="evenodd" clip-rule="evenodd" d="M134.73 20.1525C130.352 20.2108 126.222 21.303 122.575 23.1962C113.064 10.5615 97.244 2.00004 80.3961 2.00004C53.0778 2.00004 30.893 24.1573 29.303 50.987C13.6164 55.0926 2.00015 69.7647 2.00015 86.6154C2.00015 106.636 18.3677 123 38.3849 123H68.0389C68.3568 123 68.6486 122.982 68.8643 122.967L69.007 122.957C69.1137 122.95 69.1965 122.944 69.2737 122.94C69.294 122.941 69.3147 122.942 69.3361 122.943C69.3975 122.947 69.4646 122.952 69.545 122.957L69.685 122.967C69.9007 122.982 70.1926 123 70.5104 123H144.644C166.023 123 183.5 105.522 183.5 84.1439C183.5 69.4034 174.524 55.2202 162.277 48.528C162.3 48.1947 162.325 47.7701 162.325 47.375C162.325 36.7094 156.191 27.4755 147.258 23.0092C143.599 21.1796 139.47 20.15 135.1 20.15C134.977 20.15 134.854 20.1509 134.73 20.1525ZM123.246 29.8273C117.622 33.6341 113.925 40.0732 113.925 47.375C113.925 49.0457 112.571 50.4 110.9 50.4C109.229 50.4 107.875 49.0457 107.875 47.375C107.875 39.0312 111.629 31.5636 117.541 26.5695C109.104 15.5346 95.1446 8.05004 80.3961 8.05004C56.8657 8.05004 37.4603 26.8636 35.4361 50.064C35.879 50.0326 36.3542 50.0034 36.8569 49.9784C39.8177 49.8311 43.8213 49.8256 47.8293 50.4343C49.3937 50.6719 50.5106 52.075 50.3915 53.6528C50.2723 55.2306 48.9574 56.45 47.3751 56.45H32.5309C18.6661 59.2013 8.05016 71.9078 8.05016 86.6154C8.05016 103.294 21.7087 116.95 38.3849 116.95H68.0389C68.1386 116.95 68.2581 116.944 68.4523 116.931L68.5437 116.925L68.5444 116.925C68.7105 116.913 68.9391 116.897 69.162 116.889C69.2358 116.886 69.3097 116.886 69.3835 116.889C69.6085 116.897 69.8383 116.913 70.0053 116.925C70.0382 116.927 70.0687 116.929 70.0963 116.931C70.2911 116.944 70.4107 116.95 70.5104 116.95H144.644C162.681 116.95 177.45 102.181 177.45 84.1439C177.45 71.1236 169.034 58.4204 157.993 53.1279C156.943 52.6248 156.275 51.564 156.275 50.4001C156.275 50.0539 156.256 49.7137 156.231 49.2767L156.231 49.2765C156.224 49.1626 156.217 49.0422 156.21 48.9135C156.204 48.7985 156.204 48.6833 156.211 48.5684C156.222 48.3783 156.233 48.2224 156.242 48.087L156.242 48.0869C156.261 47.8096 156.274 47.6179 156.275 47.3936C156.275 47.3874 156.275 47.3812 156.275 47.375C156.275 38.6047 150.942 31.079 143.342 27.8642C140.809 26.7926 138.024 26.2 135.1 26.2C135.083 26.2 135.066 26.2001 135.049 26.2001C134.872 26.2005 134.695 26.2031 134.518 26.2079C130.409 26.319 126.599 27.6036 123.392 29.7355C123.344 29.7677 123.295 29.7983 123.246 29.8273Z" fill="white"/>
<path d="M134.73 20.1525L134.757 22.1523L134.757 22.1523L134.73 20.1525ZM122.575 23.1961L123.496 24.9712C122.63 25.4212 121.565 25.1793 120.977 24.399L122.575 23.1961ZM29.3029 50.987L31.2994 51.1053C31.2482 51.9695 30.6468 52.7026 29.8093 52.9218L29.3029 50.987ZM68.8642 122.967L69.0022 124.962L69.0004 124.962L68.8642 122.967ZM69.0069 122.957L69.146 124.952L69.1449 124.952L69.0069 122.957ZM69.2735 122.94L69.1637 120.943C69.2365 120.939 69.3094 120.939 69.3822 120.943L69.2735 122.94ZM69.3359 122.943L69.4591 120.947L69.4592 120.947L69.3359 122.943ZM69.5449 122.957L69.407 124.953L69.4063 124.952L69.5449 122.957ZM69.6848 122.967L69.5488 124.962L69.547 124.962L69.6848 122.967ZM162.277 48.528L161.318 50.283C160.634 49.9091 160.229 49.1714 160.281 48.3934L162.277 48.528ZM147.258 23.0092L148.152 21.2203V21.2203L147.258 23.0092ZM123.245 29.8273L122.124 28.171C122.16 28.1469 122.196 28.1239 122.234 28.102L123.245 29.8273ZM117.54 26.5694L119.129 25.3547C119.777 26.2021 119.646 27.4088 118.831 28.0972L117.54 26.5694ZM35.4359 50.064L35.5772 52.059C34.9934 52.1003 34.4207 51.8838 34.0102 51.4666C33.5997 51.0493 33.3926 50.4732 33.4435 49.8901L35.4359 50.064ZM36.8568 49.9783L36.7574 47.9808H36.7574L36.8568 49.9783ZM47.8291 50.4343L48.1295 48.457L47.8291 50.4343ZM32.5308 56.45L32.1415 54.4882C32.2697 54.4628 32.4001 54.45 32.5308 54.45V56.45ZM68.4521 116.931L68.5913 118.926L68.5883 118.926L68.4521 116.931ZM68.5435 116.925L68.4043 114.929C68.4091 114.929 68.414 114.929 68.4188 114.928L68.5435 116.925ZM68.5443 116.925L68.6848 118.92C68.6795 118.92 68.6743 118.92 68.669 118.921L68.5443 116.925ZM69.1618 116.889L69.2354 118.887L69.2353 118.887L69.1618 116.889ZM69.3833 116.889L69.4562 114.89H69.4563L69.3833 116.889ZM70.0051 116.925L69.8652 118.92L69.865 118.92L70.0051 116.925ZM70.0961 116.931L69.9601 118.926L69.96 118.926L70.0961 116.931ZM157.993 53.1278L158.857 51.3243L158.857 51.3243L157.993 53.1278ZM156.23 49.2766L158.226 49.1436C158.226 49.1497 158.227 49.1559 158.227 49.1621L156.23 49.2766ZM156.23 49.2764L154.235 49.4095C154.234 49.4033 154.234 49.3972 154.234 49.391L156.23 49.2764ZM156.21 48.9134L154.213 49.0225L156.21 48.9134ZM156.211 48.5684L154.214 48.4494L154.214 48.4494L156.211 48.5684ZM156.242 48.087L154.247 47.9501L154.247 47.9445L156.242 48.087ZM156.242 48.0869L158.237 48.2238L158.237 48.2294L156.242 48.0869ZM156.275 47.3935L158.275 47.3818C158.275 47.3877 158.275 47.3937 158.275 47.3997L156.275 47.3935ZM143.342 27.8642L144.121 26.0222L144.121 26.0222L143.342 27.8642ZM135.049 26.2001L135.054 28.2001H135.054L135.049 26.2001ZM134.518 26.2079L134.572 28.2071L134.518 26.2079ZM123.392 29.7355L122.285 28.07L123.392 29.7355ZM134.757 22.1523C130.697 22.2063 126.873 23.2183 123.496 24.9712L121.654 21.421C125.571 19.3876 130.006 18.2152 134.704 18.1527L134.757 22.1523ZM120.977 24.399C111.824 12.2391 96.5823 4 80.3959 4V0C97.9053 0 114.305 8.88386 124.173 21.9933L120.977 24.399ZM80.3959 4C54.1902 4 32.8299 25.2777 31.2994 51.1053L27.3064 50.8687C28.9557 23.0368 51.9652 0 80.3959 0V4ZM29.8093 52.9218C14.9989 56.7981 3.99998 70.6779 3.99998 86.6153H-1.52588e-05C-1.52588e-05 68.8514 12.2336 53.3871 28.7965 49.0522L29.8093 52.9218ZM3.99998 86.6153C3.99998 105.531 19.472 121 38.3847 121V125C17.2631 125 -1.52588e-05 107.74 -1.52588e-05 86.6153H3.99998ZM38.3847 121H68.0388V125H38.3847V121ZM68.0388 121C68.2848 121 68.52 120.986 68.728 120.972L69.0004 124.962C68.7768 124.978 68.4284 125 68.0388 125V121ZM68.7261 120.972L68.8689 120.962L69.1449 124.952L69.0022 124.962L68.7261 120.972ZM68.8677 120.962C68.9702 120.955 69.0689 120.948 69.1637 120.943L69.3833 124.937C69.3238 124.94 69.2569 124.944 69.146 124.952L68.8677 120.962ZM69.3822 120.943C69.4082 120.944 69.4338 120.945 69.4591 120.947L69.2127 124.939C69.1953 124.938 69.1795 124.937 69.1648 124.937L69.3822 120.943ZM69.4592 120.947C69.5298 120.951 69.6053 120.957 69.6834 120.962L69.4063 124.952C69.3235 124.947 69.2648 124.943 69.2126 124.939L69.4592 120.947ZM69.6827 120.962L69.8226 120.972L69.547 124.962L69.407 124.953L69.6827 120.962ZM69.8208 120.972C70.0289 120.986 70.2642 121 70.5102 121V125C70.1206 125 69.7722 124.978 69.5488 124.962L69.8208 120.972ZM70.5102 121H144.644V125H70.5102V121ZM144.644 121C164.918 121 181.5 104.418 181.5 84.1439H185.5C185.5 106.627 167.127 125 144.644 125V121ZM181.5 84.1439C181.5 70.1648 172.95 56.6392 161.318 50.283L163.236 46.7729C176.098 53.8012 185.5 68.6419 185.5 84.1439H181.5ZM160.281 48.3934C160.304 48.0637 160.325 47.6972 160.325 47.375H164.325C164.325 47.8429 164.295 48.3256 164.272 48.6625L160.281 48.3934ZM160.325 47.375C160.325 37.4959 154.645 28.9387 146.364 24.7981L148.152 21.2203C157.736 26.0122 164.325 35.9228 164.325 47.375H160.325ZM146.364 24.7981C142.976 23.1041 139.152 22.15 135.1 22.15V18.15C139.787 18.15 144.222 19.255 148.152 21.2203L146.364 24.7981ZM135.1 22.15C134.985 22.15 134.871 22.1508 134.757 22.1523L134.704 18.1527C134.836 18.1509 134.968 18.15 135.1 18.15V22.15ZM111.925 47.375C111.925 39.3816 115.974 32.334 122.124 28.171L124.366 31.4835C119.269 34.9342 115.925 40.7648 115.925 47.375H111.925ZM110.9 48.4C111.466 48.4 111.925 47.9411 111.925 47.375H115.925C115.925 50.1502 113.675 52.4 110.9 52.4V48.4ZM109.875 47.375C109.875 47.9411 110.334 48.4 110.9 48.4V52.4C108.125 52.4 105.875 50.1502 105.875 47.375H109.875ZM118.831 28.0972C113.35 32.7276 109.875 39.6448 109.875 47.375H105.875C105.875 38.4176 109.908 30.3996 116.25 25.0417L118.831 28.0972ZM80.3959 6.05C95.8017 6.05 110.336 13.8528 119.129 25.3547L115.951 27.7841C107.872 17.2163 94.4871 10.05 80.3959 10.05V6.05ZM33.4435 49.8901C35.553 25.712 55.7736 6.05 80.3959 6.05V10.05C57.9575 10.05 39.3672 28.0153 37.4284 50.2378L33.4435 49.8901ZM36.9562 51.9759C36.4682 52.0002 36.007 52.0285 35.5772 52.059L35.2947 48.069C35.7507 48.0367 36.2399 48.0066 36.7574 47.9808L36.9562 51.9759ZM47.5288 52.4116C43.7017 51.8303 39.8436 51.8322 36.9562 51.9759L36.7574 47.9808C39.7914 47.8299 43.9406 47.8208 48.1295 48.457L47.5288 52.4116ZM48.397 53.5022C48.4374 52.9675 48.0589 52.4921 47.5288 52.4116L48.1295 48.457C50.7281 48.8517 52.5835 51.1824 52.3856 53.8034L48.397 53.5022ZM47.3749 54.45C47.9111 54.45 48.3566 54.0368 48.397 53.5022L52.3856 53.8034C52.1877 56.4243 50.0034 58.45 47.3749 58.45V54.45ZM32.5308 54.45H47.3749V58.45H32.5308V54.45ZM6.04999 86.6153C6.04999 70.9582 17.3355 57.4263 32.1415 54.4882L32.92 58.4117C19.9964 60.9763 10.05 72.8572 10.05 86.6153H6.04999ZM38.3847 118.95C20.6041 118.95 6.04999 104.399 6.04999 86.6153H10.05C10.05 102.189 22.813 114.95 38.3847 114.95V118.95ZM68.0388 118.95H38.3847V114.95H68.0388V118.95ZM68.5883 118.926C68.3885 118.94 68.2112 118.95 68.0388 118.95V114.95C68.0656 114.95 68.1275 114.948 68.3159 114.936L68.5883 118.926ZM68.6827 118.92L68.5913 118.926L68.3129 114.936L68.4043 114.929L68.6827 118.92ZM68.669 118.921L68.6683 118.921L68.4188 114.928L68.4195 114.928L68.669 118.921ZM69.2353 118.887C69.051 118.894 68.8547 118.908 68.6848 118.92L68.4037 114.929C68.5659 114.918 68.827 114.899 69.0884 114.89L69.2353 118.887ZM69.3104 118.887C69.2853 118.886 69.2603 118.886 69.2354 118.887L69.0883 114.89C69.211 114.885 69.3337 114.885 69.4562 114.89L69.3104 118.887ZM69.865 118.92C69.6943 118.908 69.4967 118.894 69.3103 118.887L69.4563 114.89C69.7198 114.899 69.982 114.918 70.1452 114.93L69.865 118.92ZM69.96 118.926C69.9301 118.924 69.8973 118.922 69.8652 118.92L70.1451 114.929C70.1788 114.932 70.207 114.934 70.2321 114.936L69.96 118.926ZM70.5102 118.95C70.3378 118.95 70.1605 118.94 69.9601 118.926L70.2321 114.936C70.4214 114.948 70.4833 114.95 70.5102 114.95V118.95ZM144.644 118.95H70.5102V114.95H144.644V118.95ZM179.45 84.1439C179.45 103.286 163.786 118.95 144.644 118.95V114.95C161.577 114.95 175.45 101.077 175.45 84.1439H179.45ZM158.857 51.3243C170.577 56.9417 179.45 70.3363 179.45 84.1439H175.45C175.45 71.9109 167.492 59.899 157.128 54.9314L158.857 51.3243ZM158.275 50.4C158.275 50.7944 158.501 51.1538 158.857 51.3243L157.128 54.9314C155.384 54.0956 154.275 52.3336 154.275 50.4H158.275ZM158.227 49.1621C158.251 49.5863 158.275 49.9859 158.275 50.4H154.275C154.275 50.1217 154.259 49.8409 154.234 49.3911L158.227 49.1621ZM158.226 49.1434L158.226 49.1436L154.235 49.4096L154.235 49.4095L158.226 49.1434ZM158.207 48.8043C158.214 48.93 158.221 49.0478 158.227 49.1619L154.234 49.391C154.227 49.2774 154.22 49.1544 154.213 49.0225L158.207 48.8043ZM158.207 48.6874C158.205 48.7263 158.205 48.7653 158.207 48.8043L154.213 49.0225C154.202 48.8316 154.203 48.6403 154.214 48.4494L158.207 48.6874ZM158.237 48.2238C158.228 48.3591 158.218 48.5071 158.207 48.6874L154.214 48.4494C154.226 48.2495 154.237 48.0857 154.247 47.9501L158.237 48.2238ZM158.237 48.2294L158.237 48.2294L154.247 47.9445L154.247 47.9444L158.237 48.2294ZM158.275 47.3997C158.274 47.7001 158.256 47.9565 158.237 48.2238L154.247 47.95C154.267 47.6625 154.275 47.5356 154.275 47.3874L158.275 47.3997ZM158.275 47.375C158.275 47.3771 158.275 47.3793 158.275 47.3818L154.275 47.4053C154.275 47.3954 154.275 47.3853 154.275 47.375H158.275ZM144.121 26.0222C152.435 29.5388 158.275 37.773 158.275 47.375H154.275C154.275 39.4363 149.449 32.619 142.563 29.7061L144.121 26.0222ZM135.1 24.2C138.296 24.2 141.346 24.8482 144.121 26.0222L142.563 29.7061C140.271 28.737 137.751 28.2 135.1 28.2V24.2ZM135.045 24.2001C135.063 24.2 135.082 24.2 135.1 24.2V28.2C135.085 28.2 135.069 28.2 135.054 28.2001L135.045 24.2001ZM134.464 24.2086C134.657 24.2034 134.85 24.2005 135.045 24.2001L135.054 28.2001C134.893 28.2004 134.732 28.2028 134.572 28.2071L134.464 24.2086ZM122.285 28.07C125.793 25.7375 129.966 24.3302 134.464 24.2086L134.572 28.2071C130.851 28.3078 127.405 29.4695 124.499 31.401L122.285 28.07ZM122.234 28.102C122.251 28.092 122.268 28.0813 122.285 28.07L124.499 31.401C124.42 31.454 124.339 31.5045 124.257 31.5525L122.234 28.102Z" fill="white" mask="url(#path-2-outside-1_136_5021)"/>
</g>
</svg>
