<svg width="383" height="256" viewBox="0 0 383 256" fill="none" xmlns="http://www.w3.org/2000/svg">
<g opacity="0.25">
<path fill-rule="evenodd" clip-rule="evenodd" d="M319.186 108.517C318.459 52.9881 273.277 6.38336 217.57 6.38336C182.085 6.38336 148.77 25.5653 130.374 53.2115C122.28 47.8303 112.577 44.6834 102.134 44.6834C73.9322 44.6834 51.0671 67.5485 51.0671 95.75C51.0671 96.7267 51.1565 97.6842 51.2139 98.6481C51.1501 99.8162 51.0671 100.984 51.0671 102.133C25.604 114.338 6.38379 143.351 6.38379 173.339C6.38379 214.927 40.407 248.95 81.9944 248.95H238.431C239.312 248.95 240.167 248.848 241.042 248.816C241.91 248.848 242.765 248.95 243.646 248.95H306.222C344.937 248.95 376.617 217.276 376.617 178.555C376.617 144.27 351.76 114.657 319.186 108.517Z" fill="white" fill-opacity="0.5"/>
<path fill-rule="evenodd" clip-rule="evenodd" d="M217.57 -1.90735e-06C182.018 -1.90735e-06 148.634 18.0664 128.564 44.728C120.652 40.6208 111.664 38.3 102.134 38.3C70.4068 38.3 44.6838 64.023 44.6838 95.75C44.6838 96.5835 44.7378 97.4796 44.7852 98.1829C18.9424 112.305 0.000488281 142.234 0.000488281 173.339C0.000488281 218.452 36.8816 255.333 81.9944 255.333H238.431C239.101 255.333 239.717 255.295 240.173 255.264L240.467 255.243C240.697 255.227 240.874 255.215 241.041 255.206C241.203 255.215 241.378 255.227 241.603 255.243L241.766 255.254L241.904 255.263C242.359 255.295 242.975 255.333 243.646 255.333H306.222C348.462 255.333 383 220.802 383 178.555C383 142.996 358.488 112.036 325.386 103.372C322.031 46.756 275.217 -1.90735e-06 217.57 -1.90735e-06ZM57.4505 95.75C57.4505 96.2405 57.4786 96.6509 57.5199 97.2523L57.5199 97.2527C57.5395 97.5384 57.5621 97.8672 57.586 98.2682C57.6004 98.5107 57.601 98.7538 57.5878 98.9963C57.573 99.2671 57.5585 99.5203 57.5447 99.7597L57.5446 99.7622L57.5446 99.7623C57.4917 100.685 57.4505 101.403 57.4505 102.133C57.4505 104.59 56.0412 106.828 53.8262 107.89C30.5259 119.058 12.7672 145.864 12.7672 173.339C12.7672 211.401 43.9324 242.567 81.9944 242.567H238.431C238.641 242.567 238.893 242.554 239.305 242.526L239.497 242.513C239.849 242.488 240.334 242.454 240.809 242.437C240.964 242.431 241.12 242.431 241.276 242.437C241.746 242.454 242.229 242.488 242.579 242.513L242.581 242.513L242.774 242.526C243.183 242.554 243.436 242.567 243.646 242.567H306.222C341.412 242.567 370.234 213.75 370.234 178.555C370.234 147.519 347.832 120.706 318.575 114.9H287.25C283.911 114.9 281.137 112.327 280.885 108.997C280.634 105.668 282.991 102.707 286.292 102.206C294.75 100.921 303.198 100.933 309.446 101.244C310.507 101.296 311.509 101.358 312.444 101.424C308.173 52.467 267.224 12.7667 217.57 12.7667C186.448 12.7667 156.99 28.5606 139.188 51.8463C151.662 62.385 159.584 78.143 159.584 95.75C159.584 99.2754 156.726 102.133 153.2 102.133C149.675 102.133 146.817 99.2754 146.817 95.75C146.817 80.3412 139.016 66.753 127.148 58.7199C127.044 58.659 126.941 58.5947 126.84 58.5272C120.168 54.0915 112.259 51.3942 103.727 51.0946C103.198 51.076 102.667 51.0667 102.134 51.0667C77.4577 51.0667 57.4505 71.0739 57.4505 95.75Z" fill="white"/>
</g>
</svg>
