<svg width="16" height="17" viewBox="0 0 16 17" xmlns="http://www.w3.org/2000/svg">
<path d="M8 0.5C3.58065 0.5 0 4.08065 0 8.5C0 12.9194 3.58065 16.5 8 16.5C12.4194 16.5 16 12.9194 16 8.5C16 4.08065 12.4194 0.5 8 0.5ZM11.9226 10.6C12.0742 10.7516 12.0742 10.9968 11.9226 11.1484L10.6452 12.4226C10.4935 12.5742 10.2484 12.5742 10.0968 12.4226L8 10.3065L5.9 12.4226C5.74839 12.5742 5.50323 12.5742 5.35161 12.4226L4.07742 11.1452C3.92581 10.9935 3.92581 10.7484 4.07742 10.5968L6.19355 8.5L4.07742 6.4C3.92581 6.24839 3.92581 6.00323 4.07742 5.85161L5.35484 4.57419C5.50645 4.42258 5.75161 4.42258 5.90323 4.57419L8 6.69355L10.1 4.57742C10.2516 4.42581 10.4968 4.42581 10.6484 4.57742L11.9258 5.85484C12.0774 6.00645 12.0774 6.25161 11.9258 6.40323L9.80645 8.5L11.9226 10.6Z"/>
</svg>
