<svg width="18" height="18" viewBox="0 0 18 18" fill="none" xmlns="http://www.w3.org/2000/svg">
<path d="M6.46875 1.4043H2.41875C1.85956 1.4043 1.40625 1.85761 1.40625 2.4168V6.4668C1.40625 7.02598 1.85956 7.4793 2.41875 7.4793H6.46875C7.02794 7.4793 7.48125 7.02598 7.48125 6.4668V2.4168C7.48125 1.85761 7.02794 1.4043 6.46875 1.4043Z" stroke="#6E788C" stroke-opacity="0.5" stroke-width="1.25" stroke-linecap="round" stroke-linejoin="round"/>
<path d="M6.46875 10.5166H2.41875C1.85956 10.5166 1.40625 10.9699 1.40625 11.5291V15.5791C1.40625 16.1383 1.85956 16.5916 2.41875 16.5916H6.46875C7.02794 16.5916 7.48125 16.1383 7.48125 15.5791V11.5291C7.48125 10.9699 7.02794 10.5166 6.46875 10.5166Z" stroke="#6E788C" stroke-opacity="0.5" stroke-width="1.25" stroke-linecap="round" stroke-linejoin="round"/>
<path d="M15.5811 1.4043H11.5311C10.9719 1.4043 10.5186 1.85761 10.5186 2.4168V6.4668C10.5186 7.02598 10.9719 7.4793 11.5311 7.4793H15.5811C16.1402 7.4793 16.5936 7.02598 16.5936 6.4668V2.4168C16.5936 1.85761 16.1402 1.4043 15.5811 1.4043Z" stroke="#6E788C" stroke-opacity="0.5" stroke-width="1.25" stroke-linecap="round" stroke-linejoin="round"/>
<path d="M15.5811 10.5166H11.5311C10.9719 10.5166 10.5186 10.9699 10.5186 11.5291V15.5791C10.5186 16.1383 10.9719 16.5916 11.5311 16.5916H15.5811C16.1402 16.5916 16.5936 16.1383 16.5936 15.5791V11.5291C16.5936 10.9699 16.1402 10.5166 15.5811 10.5166Z" stroke="#6E788C" stroke-opacity="0.5" stroke-width="1.25" stroke-linecap="round" stroke-linejoin="round"/>
</svg>
