<svg width="12" height="17" viewBox="0 0 12 17" xmlns="http://www.w3.org/2000/svg">
<path d="M11.25 0.5H0.75C0.335781 0.5 0 0.835781 0 1.25V1.75C0 2.16422 0.335781 2.5 0.75 2.5C0.75 5.34266 2.34425 7.74169 4.52631 8.5C2.34425 9.25831 0.75 11.6573 0.75 14.5C0.335781 14.5 0 14.8358 0 15.25V15.75C0 16.1642 0.335781 16.5 0.75 16.5H11.25C11.6642 16.5 12 16.1642 12 15.75V15.25C12 14.8358 11.6642 14.5 11.25 14.5C11.25 11.6573 9.65575 9.25831 7.47369 8.5C9.65575 7.74169 11.25 5.34266 11.25 2.5C11.6642 2.5 12 2.16422 12 1.75V1.25C12 0.835781 11.6642 0.5 11.25 0.5ZM8.90381 12.5H3.09625C3.62934 11.0376 4.72425 10 6 10C7.27566 10 8.37069 11.0374 8.90381 12.5ZM8.90441 4.5H3.09619C2.87463 3.89213 2.75 3.21088 2.75 2.5H9.25C9.25 3.21266 9.12541 3.89334 8.90441 4.5Z" />
</svg>
