<svg width="18" height="18" viewBox="0 0 18 18" fill="none" xmlns="http://www.w3.org/2000/svg">
<path d="M15.5 1.49805H2.5C1.94772 1.49805 1.5 1.94576 1.5 2.49805V3.49805C1.5 4.05033 1.94772 4.49805 2.5 4.49805H15.5C16.0523 4.49805 16.5 4.05033 16.5 3.49805V2.49805C16.5 1.94576 16.0523 1.49805 15.5 1.49805Z" stroke="#6E788C" stroke-opacity="0.5" stroke-width="1.25" stroke-linecap="round" stroke-linejoin="round"/>
<path d="M15.5 7.49805H2.5C1.94772 7.49805 1.5 7.94576 1.5 8.49805V9.49805C1.5 10.0503 1.94772 10.498 2.5 10.498H15.5C16.0523 10.498 16.5 10.0503 16.5 9.49805V8.49805C16.5 7.94576 16.0523 7.49805 15.5 7.49805Z" stroke="#6E788C" stroke-opacity="0.5" stroke-width="1.25" stroke-linecap="round" stroke-linejoin="round"/>
<path d="M15.5 13.498H2.5C1.94772 13.498 1.5 13.9458 1.5 14.498V15.498C1.5 16.0503 1.94772 16.498 2.5 16.498H15.5C16.0523 16.498 16.5 16.0503 16.5 15.498V14.498C16.5 13.9458 16.0523 13.498 15.5 13.498Z" stroke="#6E788C" stroke-opacity="0.5" stroke-width="1.25" stroke-linecap="round" stroke-linejoin="round"/>
</svg>
