<svg width="16" height="16" viewBox="0 0 16 16" fill="none" xmlns="http://www.w3.org/2000/svg">
<path d="M8 4.33301C8.26522 4.33301 8.51957 4.22765 8.70711 4.04011C8.89464 3.85258 9 3.59822 9 3.33301V1.33301C9 1.06779 8.89464 0.813437 8.70711 0.625901C8.51957 0.438365 8.26522 0.333008 8 0.333008C7.73478 0.333008 7.48043 0.438365 7.29289 0.625901C7.10536 0.813437 7 1.06779 7 1.33301V3.33301C7 3.59822 7.10536 3.85258 7.29289 4.04011C7.48043 4.22765 7.73478 4.33301 8 4.33301Z" fill="#6E788C" fill-opacity="0.5"/>
<path d="M5.51403 4.07025L4.09936 2.65625C3.90857 2.47505 3.65549 2.37402 3.39236 2.37402C3.12924 2.37402 2.87616 2.47505 2.68536 2.65625C2.49789 2.84377 2.39258 3.09808 2.39258 3.36325C2.39258 3.62841 2.49789 3.88272 2.68536 4.07025L4.10003 5.48425C4.19277 5.57727 4.30304 5.65097 4.42445 5.70109C4.54586 5.75122 4.67601 5.77676 4.80736 5.77625C5.00488 5.77594 5.19788 5.71715 5.36203 5.60729C5.52617 5.49743 5.65411 5.34142 5.7297 5.15894C5.80528 4.97646 5.82514 4.77568 5.78676 4.58193C5.74838 4.38818 5.65348 4.21013 5.51403 4.07025Z" fill="#6E788C" fill-opacity="0.5"/>
<path d="M0.333252 8C0.333252 8.26522 0.438609 8.51957 0.626145 8.70711C0.813682 8.89464 1.06804 9 1.33325 9H3.33325C3.59847 9 3.85282 8.89464 4.04036 8.70711C4.2279 8.51957 4.33325 8.26522 4.33325 8C4.33325 7.73478 4.2279 7.48043 4.04036 7.29289C3.85282 7.10536 3.59847 7 3.33325 7H1.33325C1.06804 7 0.813682 7.10536 0.626145 7.29289C0.438609 7.48043 0.333252 7.73478 0.333252 8Z" fill="#6E788C" fill-opacity="0.5"/>
<path d="M4.63806 10.349C4.50681 10.3485 4.37677 10.3741 4.25547 10.4242C4.13416 10.4743 4.02401 10.548 3.9314 10.641L2.51673 12.0557C2.33817 12.2453 2.24059 12.497 2.24476 12.7574C2.24892 13.0178 2.35449 13.2662 2.53902 13.45C2.72356 13.6337 2.97249 13.7383 3.23289 13.7413C3.49328 13.7444 3.7446 13.6457 3.9334 13.4664L5.34806 12.0517C5.48755 11.9118 5.58246 11.7337 5.62082 11.5399C5.65918 11.346 5.63927 11.1452 5.5636 10.9627C5.48793 10.7802 5.35989 10.6242 5.19565 10.5144C5.0314 10.4046 4.8383 10.3459 4.64073 10.3457L4.63806 10.349Z" fill="#6E788C" fill-opacity="0.5"/>
<path d="M7 14.667C7 14.9322 7.10536 15.1866 7.29289 15.3741C7.48043 15.5616 7.73478 15.667 8 15.667C8.26522 15.667 8.51957 15.5616 8.70711 15.3741C8.89464 15.1866 9 14.9322 9 14.667V12.667C9 12.4018 8.89464 12.1474 8.70711 11.9599C8.51957 11.7723 8.26522 11.667 8 11.667C7.73478 11.667 7.48043 11.7723 7.29289 11.9599C7.10536 12.1474 7 12.4018 7 12.667V14.667Z" fill="#6E788C" fill-opacity="0.5"/>
<path d="M10.6993 10.6708C10.5118 10.8583 10.4065 11.1126 10.4065 11.3778C10.4065 11.643 10.5118 11.8973 10.6993 12.0848L12.1139 13.4988C12.3016 13.687 12.5564 13.793 12.8222 13.7933C13.088 13.7937 13.3431 13.6885 13.5313 13.5008C13.7195 13.3131 13.8254 13.0583 13.8258 12.7925C13.8262 12.5267 13.721 12.2717 13.5333 12.0835L12.1153 10.6668C12.0221 10.5739 11.9116 10.5004 11.7899 10.4503C11.6683 10.4002 11.538 10.3746 11.4065 10.375C11.2749 10.3754 11.1447 10.4017 11.0234 10.4524C10.9021 10.5032 10.7919 10.5774 10.6993 10.6708Z" fill="#6E788C" fill-opacity="0.5"/>
<path d="M15.6667 8C15.6667 7.73478 15.5614 7.48043 15.3739 7.29289C15.1863 7.10536 14.932 7 14.6667 7H12.6667C12.4015 7 12.1472 7.10536 11.9596 7.29289C11.7721 7.48043 11.6667 7.73478 11.6667 8C11.6667 8.26522 11.7721 8.51957 11.9596 8.70711C12.1472 8.89464 12.4015 9 12.6667 9H14.6667C14.932 9 15.1863 8.89464 15.3739 8.70711C15.5614 8.51957 15.6667 8.26522 15.6667 8Z" fill="#6E788C" fill-opacity="0.5"/>
<path d="M12.6959 2.27344C12.5647 2.27295 12.4346 2.2985 12.3133 2.34862C12.192 2.39875 12.0819 2.47244 11.9893 2.56544L10.5759 3.97878C10.4829 4.07166 10.4091 4.18197 10.3587 4.3034C10.3084 4.42482 10.2825 4.55499 10.2825 4.68644C10.2825 4.8179 10.3084 4.94807 10.3587 5.06949C10.4091 5.19092 10.4829 5.30123 10.5759 5.39411C10.7635 5.58158 11.0178 5.6869 11.2829 5.6869C11.5481 5.6869 11.8024 5.58158 11.9899 5.39411L13.4039 3.98078C13.5439 3.84088 13.6392 3.6626 13.6778 3.4685C13.7164 3.27439 13.6966 3.0732 13.6208 2.89039C13.545 2.70758 13.4166 2.55138 13.252 2.44155C13.0873 2.33173 12.8938 2.27322 12.6959 2.27344Z" fill="#6E788C" fill-opacity="0.5"/>
</svg>
