<svg width="190" height="28" viewBox="0 0 190 28" fill="none" xmlns="http://www.w3.org/2000/svg">
<path d="M49.1548 17.0145L51.2869 22.9383H51.4356L52.9487 14.6704H54.5035L52.4152 25.3262H50.5193L48.4748 19.444H48.4114L46.2793 25.3262H44.3835L42.1465 14.6704H43.7887L45.514 22.982H45.6408L47.7072 17.0145H49.1548Z" fill="#6E788C" stroke="#6E788C" stroke-width="0.231573"/>
<path d="M57.4314 15.5015C58.0415 15.1473 58.7325 14.8914 59.4979 14.734C60.2654 14.5787 61.0176 14.5 61.7567 14.5C62.4805 14.5 63.0753 14.6137 63.5367 14.8411C63.9981 15.0685 64.3611 15.3637 64.6235 15.7245C64.8859 16.0875 65.063 16.4986 65.157 16.96C65.2489 17.4214 65.2948 17.8872 65.2948 18.3551C65.2948 18.8953 65.2795 19.4704 65.2532 20.0826C65.2248 20.6927 65.2029 21.305 65.1898 21.9151C65.1898 22.6258 65.2336 23.2993 65.3188 23.94H66.7467V25.3241H63.9325L63.7422 23.7257H63.6351C63.5498 23.8525 63.4208 24.0165 63.2502 24.2155C63.0797 24.4145 62.8544 24.6091 62.5767 24.8015C62.299 24.9939 61.9601 25.1601 61.5621 25.3023C61.1641 25.4444 60.6918 25.5144 60.1517 25.5144C59.0977 25.5144 58.2624 25.2454 57.6501 24.7053C57.0378 24.1652 56.7317 23.4261 56.7317 22.488C56.7317 21.7642 56.8913 21.1607 57.2128 20.6774C57.5342 20.1942 57.9934 19.8246 58.5926 19.5688C59.1917 19.3129 59.9133 19.1642 60.7618 19.1205C61.6102 19.0789 62.5614 19.1358 63.6154 19.291C63.6854 18.6372 63.6963 18.0949 63.6482 17.6598C63.5979 17.2268 63.4842 16.8813 63.3049 16.6255C63.1256 16.3696 62.8763 16.1881 62.557 16.0832C62.2356 15.976 61.8398 15.9235 61.3697 15.9235C60.729 15.9235 60.1145 16.0132 59.5307 16.1903C58.9468 16.3674 58.4264 16.5489 57.9694 16.7348L57.4314 15.5015ZM60.5868 24.0908C60.9848 24.0908 61.3544 24.0274 61.6955 23.8984C62.0366 23.7716 62.334 23.6076 62.5898 23.4086C62.8457 23.2096 63.0578 22.9931 63.2284 22.7591C63.3989 22.5252 63.5257 22.2999 63.6132 22.0878V20.5965C62.8741 20.4675 62.1919 20.4041 61.5665 20.4041C60.9411 20.4041 60.401 20.4719 59.9461 20.6074C59.4913 20.743 59.1371 20.9529 58.8812 21.235C58.6254 21.5193 58.4985 21.8888 58.4985 22.3437C58.4985 22.8116 58.6582 23.2205 58.9774 23.5682C59.2967 23.9159 59.8324 24.0908 60.5868 24.0908Z" fill="#6E788C" stroke="#6E788C" stroke-width="0.231573"/>
<path d="M67.7854 14.6709H70.322V12.5607L72.0057 12.0928V14.6709H77.6955V16.0988H72.0057V21.1282C72.0057 22.1647 72.2572 22.9322 72.7601 23.4286C73.2631 23.9272 73.9825 24.1743 74.9162 24.1743C75.5525 24.1743 76.1101 24.054 76.5825 23.8134C77.0548 23.5729 77.4856 23.3083 77.8682 23.0241L78.4215 24.2814C77.9229 24.6794 77.3303 24.9986 76.6415 25.2392C75.9527 25.4797 75.2464 25.6022 74.5204 25.6022C73.9519 25.6022 73.4161 25.5191 72.911 25.3573C72.4059 25.1933 71.962 24.9418 71.5793 24.6007C71.1966 24.2595 70.8905 23.8222 70.6631 23.2908C70.4357 22.7573 70.322 22.1231 70.322 21.384V16.0988H67.7854V14.6709Z" fill="#6E788C" stroke="#6E788C" stroke-width="0.231573"/>
<path d="M90.2362 23.9838C89.9803 24.2112 89.6786 24.4255 89.3309 24.6223C88.9832 24.8213 88.6027 24.9918 88.1916 25.134C87.7783 25.2761 87.3497 25.3854 86.9037 25.4642C86.4554 25.5429 86.0049 25.5823 85.5501 25.5823C84.6973 25.5823 83.9451 25.451 83.2912 25.1886C82.6374 24.9262 82.0908 24.5501 81.6512 24.0581C81.2095 23.5683 80.8771 22.9823 80.6497 22.3C80.4223 21.6178 80.3086 20.8502 80.3086 19.9996C80.3086 19.1053 80.4332 18.3093 80.6825 17.6118C80.9296 16.9164 81.2904 16.3325 81.7584 15.8646C82.2263 15.3966 82.7949 15.038 83.464 14.7887C84.1309 14.5416 84.8766 14.417 85.701 14.417C86.2979 14.417 86.8862 14.4957 87.47 14.651C88.0517 14.8084 88.5677 15.1014 89.016 15.5366C89.4643 15.9695 89.8076 16.5665 90.0503 17.3275C90.2909 18.0885 90.3761 19.0725 90.3062 20.2795H82.0798C82.0798 21.5587 82.4231 22.5143 83.1097 23.1463C83.7964 23.7782 84.7148 24.0953 85.8628 24.0953C86.2455 24.0953 86.6238 24.0494 86.9999 23.9575C87.376 23.8657 87.7324 23.7542 88.0735 23.6273C88.4125 23.5005 88.7142 23.3584 88.9766 23.2009C89.2391 23.0457 89.4402 22.9036 89.5824 22.7745L90.2362 23.9838ZM85.7491 15.823C85.2811 15.823 84.8394 15.8733 84.4218 15.9717C84.0041 16.0723 83.6367 16.2385 83.3175 16.4725C82.9982 16.7065 82.7358 17.0126 82.5325 17.3887C82.3269 17.7648 82.1957 18.2306 82.1389 18.7838H88.7449C88.6749 17.8457 88.3731 17.1176 87.8418 16.5993C87.3104 16.0811 86.6128 15.823 85.7491 15.823Z" fill="#6E788C" stroke="#6E788C" stroke-width="0.231573"/>
<path d="M93.092 25.3261V23.8982H95.9697V16.0983H93.092V14.6704H97.0762L97.4173 16.0545H97.5245C98.0077 15.615 98.5478 15.2389 99.1448 14.924C99.7418 14.6113 100.452 14.4561 101.275 14.4561C101.758 14.4561 102.145 14.5479 102.436 14.7338C102.727 14.9174 102.954 15.1886 103.118 15.5428C103.282 15.8971 103.391 16.3279 103.448 16.8308C103.505 17.3359 103.534 17.9067 103.534 18.5474L102.042 18.5692C102.042 17.6683 101.953 17.0057 101.775 16.5815C101.598 16.1595 101.275 15.9474 100.807 15.9474C100.365 15.9474 99.9692 16.0108 99.6128 16.1376C99.2563 16.2645 98.948 16.4219 98.6856 16.6056C98.4232 16.7893 98.198 16.9729 98.0143 17.1588C97.8284 17.3425 97.695 17.4999 97.6097 17.6268V23.896H101.701V25.3239H93.092V25.3261Z" fill="#6E788C" stroke="#6E788C" stroke-width="0.231573"/>
<path d="M111.362 25.3264V18.2306C111.362 17.9332 111.351 17.6445 111.329 17.3668C111.307 17.0891 111.257 16.842 111.18 16.6212C111.102 16.4003 110.988 16.2276 110.839 16.0985C110.69 15.9695 110.494 15.9061 110.253 15.9061C109.77 15.9061 109.361 16.1051 109.029 16.5031C108.694 16.9011 108.443 17.3974 108.272 17.9944V25.3242H106.654V14.6706H107.762L108.082 15.9695H108.167C108.309 15.7574 108.447 15.5541 108.582 15.3616C108.718 15.1692 108.873 15.003 109.05 14.8609C109.228 14.7187 109.437 14.6094 109.678 14.5307C109.919 14.452 110.225 14.4126 110.594 14.4126C110.806 14.4126 111.027 14.4454 111.255 14.5088C111.482 14.5722 111.692 14.6728 111.882 14.8062C112.075 14.9418 112.241 15.1233 112.383 15.3485C112.525 15.5759 112.617 15.8536 112.661 16.1794C112.986 15.6262 113.354 15.1932 113.758 14.8805C114.163 14.5679 114.721 14.4126 115.431 14.4126C115.901 14.4126 116.28 14.4913 116.57 14.6466C116.861 14.804 117.089 15.0271 117.253 15.3179C117.417 15.6087 117.53 15.9564 117.594 16.3631C117.657 16.7677 117.69 17.2203 117.69 17.7167V25.3242H116.07V18.0797C116.07 17.7823 116.054 17.5002 116.028 17.2378C116 16.9754 115.945 16.7436 115.869 16.5446C115.79 16.3456 115.685 16.1904 115.549 16.0767C115.414 15.963 115.232 15.9061 115.005 15.9061C114.508 15.9061 114.089 16.1051 113.747 16.5031C113.406 16.9011 113.15 17.4696 112.98 18.2087V25.3264H111.362Z" fill="#6E788C" stroke="#6E788C" stroke-width="0.231573"/>
<path d="M121.248 15.5015C121.858 15.1473 122.549 14.8914 123.314 14.734C124.082 14.5787 124.834 14.5 125.573 14.5C126.297 14.5 126.892 14.6137 127.353 14.8411C127.814 15.0685 128.177 15.3637 128.44 15.7245C128.702 16.0875 128.879 16.4986 128.973 16.96C129.065 17.4214 129.111 17.8872 129.111 18.3551C129.111 18.8953 129.096 19.4704 129.07 20.0826C129.041 20.6927 129.019 21.305 129.006 21.9151C129.006 22.6258 129.05 23.2993 129.135 23.94H130.563V25.3241H127.749L127.559 23.7257H127.451C127.366 23.8525 127.237 24.0165 127.067 24.2155C126.896 24.4145 126.671 24.6091 126.393 24.8015C126.115 24.9939 125.776 25.1601 125.379 25.3023C124.981 25.4444 124.508 25.5144 123.968 25.5144C122.914 25.5144 122.079 25.2454 121.467 24.7053C120.854 24.1652 120.548 23.4261 120.548 22.488C120.548 21.7642 120.708 21.1607 121.029 20.6774C121.351 20.1942 121.81 19.8246 122.409 19.5688C123.008 19.3129 123.73 19.1642 124.578 19.1205C125.427 19.0789 126.378 19.1358 127.432 19.291C127.502 18.6372 127.513 18.0949 127.465 17.6598C127.414 17.2268 127.301 16.8813 127.121 16.6255C126.942 16.3696 126.693 16.1881 126.373 16.0832C126.052 15.976 125.656 15.9235 125.186 15.9235C124.545 15.9235 123.931 16.0132 123.347 16.1903C122.763 16.3674 122.243 16.5489 121.786 16.7348L121.248 15.5015ZM124.401 24.0908C124.799 24.0908 125.169 24.0274 125.51 23.8984C125.851 23.7716 126.148 23.6076 126.404 23.4086C126.66 23.2096 126.872 22.9931 127.043 22.7591C127.213 22.5252 127.34 22.2999 127.427 22.0878V20.5965C126.688 20.4675 126.006 20.4041 125.381 20.4041C124.755 20.4041 124.215 20.4719 123.76 20.6074C123.306 20.743 122.951 20.9529 122.695 21.235C122.44 21.5193 122.313 21.8888 122.313 22.3437C122.313 22.8116 122.472 23.2205 122.792 23.5682C123.111 23.9159 123.647 24.0908 124.401 24.0908Z" fill="#6E788C" stroke="#6E788C" stroke-width="0.231573"/>
<path d="M133.073 25.3261V23.8982H135.951V16.0983H133.073V14.6704H137.058L137.399 16.0545H137.506C137.989 15.615 138.529 15.2389 139.126 14.924C139.723 14.6113 140.434 14.4561 141.256 14.4561C141.739 14.4561 142.126 14.5479 142.417 14.7338C142.708 14.9174 142.935 15.1886 143.099 15.5428C143.263 15.8971 143.373 16.3279 143.43 16.8308C143.487 17.3359 143.515 17.9067 143.515 18.5474L142.024 18.5692C142.024 17.6683 141.934 17.0057 141.757 16.5815C141.58 16.1595 141.256 15.9474 140.788 15.9474C140.346 15.9474 139.951 16.0108 139.594 16.1376C139.238 16.2645 138.929 16.4219 138.667 16.6056C138.405 16.7893 138.179 16.9729 137.996 17.1588C137.81 17.3425 137.676 17.4999 137.591 17.6268V23.896H141.682V25.3239H133.073V25.3261Z" fill="#6E788C" stroke="#6E788C" stroke-width="0.231573"/>
<path d="M144.901 10.4087H148.354V19.232H149.526L153.725 14.6706H155.728L151.018 19.7218L154.897 23.8984H156.281V25.3263H154.085L149.524 20.5112H148.352V25.3263H146.712V11.8366H144.901V10.4087Z" fill="#6E788C" stroke="#6E788C" stroke-width="0.231573"/>
<path d="M167.411 23.9838C167.155 24.2112 166.854 24.4255 166.506 24.6223C166.158 24.8213 165.778 24.9918 165.367 25.134C164.953 25.2761 164.525 25.3854 164.079 25.4642C163.63 25.5429 163.18 25.5823 162.725 25.5823C161.872 25.5823 161.12 25.451 160.466 25.1886C159.812 24.9262 159.266 24.5501 158.826 24.0581C158.385 23.5683 158.052 22.9823 157.825 22.3C157.597 21.6178 157.484 20.8502 157.484 19.9996C157.484 19.1053 157.608 18.3093 157.858 17.6118C158.105 16.9164 158.465 16.3325 158.933 15.8646C159.401 15.3966 159.97 15.038 160.639 14.7887C161.306 14.5416 162.052 14.417 162.876 14.417C163.473 14.417 164.061 14.4957 164.645 14.651C165.227 14.8084 165.743 15.1014 166.191 15.5366C166.639 15.9695 166.983 16.5665 167.225 17.3275C167.466 18.0885 167.551 19.0725 167.481 20.2795H159.255C159.255 21.5587 159.598 22.5143 160.285 23.1463C160.971 23.7782 161.89 24.0953 163.038 24.0953C163.421 24.0953 163.799 24.0494 164.175 23.9575C164.551 23.8657 164.907 23.7542 165.249 23.6273C165.59 23.5005 165.889 23.3584 166.152 23.2009C166.414 23.0457 166.615 22.9036 166.757 22.7745L167.411 23.9838ZM162.926 15.823C162.458 15.823 162.017 15.8733 161.599 15.9717C161.181 16.0723 160.814 16.2385 160.495 16.4725C160.175 16.7065 159.913 17.0126 159.71 17.3887C159.504 17.7648 159.373 18.2306 159.316 18.7838H165.922C165.852 17.8457 165.55 17.1176 165.019 16.5993C164.485 16.0811 163.79 15.823 162.926 15.823Z" fill="#6E788C" stroke="#6E788C" stroke-width="0.231573"/>
<path d="M175.795 10.4087H179.27V21.6811C179.27 21.8079 179.276 21.9697 179.291 22.16C179.304 22.3524 179.324 22.5536 179.346 22.7679C179.368 22.98 179.392 23.1899 179.42 23.3977C179.449 23.6032 179.477 23.7847 179.506 23.9399H180.931V25.3241H178.078L177.863 23.6819H177.778C177.465 24.222 177.002 24.6725 176.385 25.0355C175.769 25.3985 175.058 25.5778 174.249 25.5778C172.648 25.5778 171.467 25.1273 170.709 24.2242C169.95 23.3211 169.572 21.9194 169.572 20.0148C169.572 19.1205 169.698 18.3289 169.954 17.6379C170.21 16.9491 170.573 16.374 171.05 15.9104C171.524 15.449 172.095 15.097 172.762 14.8564C173.429 14.6159 174.172 14.4934 174.995 14.4934C175.292 14.4934 175.557 14.5 175.79 14.5153C176.024 14.5306 176.241 14.5503 176.438 14.5787C176.637 14.6071 176.825 14.6465 177.002 14.6968C177.179 14.7471 177.374 14.7996 177.586 14.8564V11.8366H175.795V10.4087ZM174.527 24.1542C175.39 24.1542 176.07 23.9312 176.565 23.4829C177.061 23.0347 177.4 22.3633 177.584 21.469V16.5249C177.271 16.3128 176.921 16.1553 176.532 16.0547C176.143 15.9563 175.629 15.906 174.992 15.906C173.86 15.906 172.967 16.2362 172.316 16.8966C171.664 17.557 171.338 18.5979 171.338 20.0192C171.338 20.6009 171.391 21.1454 171.498 21.6483C171.605 22.1534 171.782 22.5908 172.029 22.9603C172.276 23.3299 172.607 23.6207 173.016 23.8328C173.429 24.0471 173.932 24.1542 174.527 24.1542Z" fill="#6E788C" stroke="#6E788C" stroke-width="0.231573"/>
<path d="M0 0V28H14V14H28V0H0Z" fill="#23375A"/>
<path d="M28 14H14V28H28V14Z" fill="#FF4650"/>
</svg>
