<svg width="137" height="138" viewBox="0 0 137 138" fill="none" xmlns="http://www.w3.org/2000/svg">
<path d="M96.0596 90.3788L130.952 126.018" stroke="#FFE100" stroke-width="10.5148" stroke-linecap="round" stroke-linejoin="round"/>
<path fill-rule="evenodd" clip-rule="evenodd" d="M109.931 57.8421C109.931 86.4781 86.7147 109.694 58.0788 109.694C29.4428 109.694 6.22705 86.4781 6.22705 57.8421C6.22705 29.2061 29.4428 5.99036 58.0788 5.99036C86.7147 5.99036 109.931 29.2061 109.931 57.8421Z" fill="#FFA800"/>
<path fill-rule="evenodd" clip-rule="evenodd" d="M94.0511 57.8421C94.0511 80.5391 79.4684 99.8327 59.1586 106.857C53.8443 108.693 64.0177 109.694 58.0788 109.694C29.4428 109.694 6.22705 86.4781 6.22705 57.8421C6.22705 29.2061 29.4428 5.99036 58.0788 5.99036C64.023 5.99036 53.8496 6.99077 59.1692 8.83278C79.4737 15.8621 94.0511 35.1503 94.0511 57.8421Z" fill="#FFE100"/>
<path fill-rule="evenodd" clip-rule="evenodd" d="M109.931 57.8421C109.931 86.4781 86.7147 109.694 58.0788 109.694C29.4428 109.694 6.22705 86.4781 6.22705 57.8421C6.22705 29.2061 29.4428 5.99036 58.0788 5.99036C86.7147 5.99036 109.931 29.2061 109.931 57.8421Z" stroke="black" stroke-width="10.5148"/>
<path d="M92.9595 96.2076L127.852 131.846" stroke="black" stroke-width="10.5148" stroke-linecap="round"/>
</svg>
