<svg width="24" height="14" viewBox="0 0 24 14" fill="none" xmlns="http://www.w3.org/2000/svg">
<path d="M6.76884 0C10.5072 0 13.5374 3.05143 13.5374 6.81529C13.5374 10.5792 10.5069 13.6303 6.76884 13.6303C3.03073 13.6303 0 10.5792 0 6.81529C0 3.05143 3.0305 0 6.76884 0ZM17.5782 0.399222C19.4474 0.399222 20.9626 3.2715 20.9626 6.81529H20.9628C20.9628 10.3582 19.4476 13.2314 17.5784 13.2314C15.7092 13.2314 14.194 10.3582 14.194 6.81529C14.194 3.27242 15.709 0.399222 17.5782 0.399222ZM22.8097 1.0675C23.4669 1.0675 24 3.64083 24 6.81529C24 9.98883 23.4672 12.5631 22.8097 12.5631C22.1522 12.5631 21.6196 9.98952 21.6196 6.81529C21.6196 3.64106 22.1524 1.0675 22.8097 1.0675Z" fill="#6E788C"/>
</svg>
