<svg width="133" height="140" viewBox="0 0 133 140" fill="none" xmlns="http://www.w3.org/2000/svg">
<path fill-rule="evenodd" clip-rule="evenodd" d="M128.556 33.6729L50.0038 43.8086L50.0479 14.2256L128.6 4.08984L128.556 33.6729Z" fill="#FFA800"/>
<path fill-rule="evenodd" clip-rule="evenodd" d="M117.102 33.7976L50.4813 44.0553L50.1328 14.8085L116.753 4.55085L117.102 33.7976Z" fill="#FFE100"/>
<path fill-rule="evenodd" clip-rule="evenodd" d="M128.599 92.7773C128.599 103.972 118.39 113.049 105.794 113.049C93.198 113.049 82.9888 103.972 82.9888 92.7773C82.9888 81.5824 93.198 72.5059 105.794 72.5059C118.39 72.5059 128.599 81.5824 128.599 92.7773Z" fill="#FFA800"/>
<path fill-rule="evenodd" clip-rule="evenodd" d="M117.235 91.3339C117.235 101.732 109.568 110.162 100.112 110.162C90.6554 110.162 82.9888 101.732 82.9888 91.3339C82.9888 80.9361 90.6554 72.5059 100.112 72.5059C109.568 72.5059 117.235 80.9361 117.235 91.3339Z" fill="#FFE100"/>
<path fill-rule="evenodd" clip-rule="evenodd" d="M50.0477 116.075C50.0477 127.27 39.8385 136.346 27.2424 136.346C14.6462 136.346 4.43701 127.27 4.43701 116.075C4.43701 104.88 14.6462 95.8032 27.2424 95.8032C39.8385 95.8032 50.0477 104.88 50.0477 116.075Z" fill="#FFA800"/>
<path fill-rule="evenodd" clip-rule="evenodd" d="M38.8633 116.075C38.8633 127.27 31.1564 136.346 21.6502 136.346C12.1439 136.346 4.43701 127.27 4.43701 116.075C4.43701 104.88 12.1439 95.8032 21.6502 95.8032C31.1564 95.8032 38.8633 104.88 38.8633 116.075Z" fill="#FFE100"/>
<path fill-rule="evenodd" clip-rule="evenodd" d="M128.578 33.2238L50.026 43.3596L50.0478 14.2256L128.6 4.08984L128.578 33.2238Z" stroke="black" stroke-width="8" stroke-linecap="round" stroke-linejoin="round"/>
<path d="M50.0479 115.583L50.0479 29.4292" stroke="black" stroke-width="8" stroke-linecap="round" stroke-linejoin="round"/>
<path d="M128.599 92.7774V19.2935" stroke="black" stroke-width="8" stroke-linecap="round" stroke-linejoin="round"/>
<path d="M98.1923 73.6598C100.569 72.9123 103.128 72.5068 105.794 72.5068C118.39 72.5068 128.599 81.5808 128.599 92.7783C128.599 103.973 118.39 113.05 105.794 113.05C93.2005 113.05 82.9888 103.973 82.9888 92.7783C82.9888 92.089 83.0293 91.4074 83.1028 90.7334" stroke="black" stroke-width="8" stroke-linecap="round" stroke-linejoin="round"/>
<path fill-rule="evenodd" clip-rule="evenodd" d="M90.5903 80.5994C90.5903 81.9981 89.4551 83.1333 88.0564 83.1333C86.6577 83.1333 85.5225 81.9981 85.5225 80.5994C85.5225 79.2006 86.6577 78.0654 88.0564 78.0654C89.4551 78.0654 90.5903 79.2006 90.5903 80.5994Z" fill="black"/>
<path d="M19.6406 96.4649C22.0174 95.7174 24.5767 95.312 27.2424 95.312C39.8385 95.312 50.0477 104.386 50.0477 115.583C50.0477 126.778 39.8385 135.855 27.2424 135.855C14.6487 135.855 4.43701 126.778 4.43701 115.583C4.43701 114.894 4.47755 114.213 4.55104 113.539" stroke="black" stroke-width="8" stroke-linecap="round" stroke-linejoin="round"/>
<path fill-rule="evenodd" clip-rule="evenodd" d="M12.039 103.405C12.039 104.804 10.9038 105.939 9.50512 105.939C8.10639 105.939 6.97119 104.804 6.97119 103.405C6.97119 102.006 8.10639 100.871 9.50512 100.871C10.9038 100.871 12.039 102.006 12.039 103.405Z" fill="black"/>
</svg>
