<svg width="130" height="48" viewBox="0 0 130 48" fill="none" xmlns="http://www.w3.org/2000/svg">
<path fill-rule="evenodd" clip-rule="evenodd" d="M105.836 45.2252H67.19C55.3816 45.2252 45.7202 35.5965 45.7202 23.8282C45.7202 12.0598 55.3816 2.43115 67.19 2.43115H105.836C117.644 2.43115 127.305 12.0598 127.305 23.8282C127.305 35.5965 117.644 45.2252 105.836 45.2252Z" fill="#315ED8"/>
<path fill-rule="evenodd" clip-rule="evenodd" d="M62.8962 45.2252H24.2505C12.4422 45.2252 2.78076 35.5965 2.78076 23.8282C2.78076 12.0598 12.4422 2.43115 24.2505 2.43115H62.8962C74.7046 2.43115 84.366 12.0598 84.366 23.8282C84.366 35.5965 74.7046 45.2252 62.8962 45.2252Z" fill="white"/>
<path fill-rule="evenodd" clip-rule="evenodd" d="M99.3943 45.2252H30.691C18.8826 45.2252 9.22119 35.5965 9.22119 23.8282C9.22119 12.0598 18.8826 2.43115 30.691 2.43115H99.3943C111.203 2.43115 120.864 12.0598 120.864 23.8282C120.864 35.5965 111.203 45.2252 99.3943 45.2252Z" fill="#3D83F3"/>
<path d="M58.6022 2.43115H105.836C117.644 2.43115 127.306 12.0598 127.306 23.8282C127.306 35.5965 117.644 45.2252 105.836 45.2252H24.2506C12.4422 45.2252 2.78076 35.5965 2.78076 23.8282C2.78076 12.0598 12.4422 2.43115 24.2506 2.43115H41.4264" stroke="black" stroke-width="4.28587" stroke-linecap="round"/>
<path d="M26.3972 13.1296V23.8281" stroke="black" stroke-width="4.28587" stroke-linecap="round"/>
<path d="M26.3975 23.8282L34.9854 19.5488" stroke="black" stroke-width="4.28587" stroke-linecap="round"/>
<path d="M26.3972 23.8282L17.8093 19.5488" stroke="black" stroke-width="4.28587" stroke-linecap="round"/>
<path d="M26.3972 23.8281L19.9563 32.3869" stroke="black" stroke-width="4.28587" stroke-linecap="round"/>
<path d="M26.3975 23.8281L32.8384 32.3869" stroke="black" stroke-width="4.28587" stroke-linecap="round"/>
<path d="M52.1606 13.1296V23.8281" stroke="black" stroke-width="4.28587" stroke-linecap="round"/>
<path d="M52.1609 23.8282L60.7488 19.5488" stroke="black" stroke-width="4.28587" stroke-linecap="round"/>
<path d="M52.1607 23.8282L43.5728 19.5488" stroke="black" stroke-width="4.28587" stroke-linecap="round"/>
<path d="M52.1612 23.8281L45.7202 32.3869" stroke="black" stroke-width="4.28587" stroke-linecap="round"/>
<path d="M52.1609 23.8281L58.6018 32.3869" stroke="black" stroke-width="4.28587" stroke-linecap="round"/>
<path d="M77.9248 13.1296V23.8281" stroke="black" stroke-width="4.28587" stroke-linecap="round"/>
<path d="M77.9248 23.8282L86.5127 19.5488" stroke="black" stroke-width="4.28587" stroke-linecap="round"/>
<path d="M77.9246 23.8282L69.3367 19.5488" stroke="black" stroke-width="4.28587" stroke-linecap="round"/>
<path d="M77.9246 23.8281L71.4836 32.3869" stroke="black" stroke-width="4.28587" stroke-linecap="round"/>
<path d="M77.9248 23.8281L84.3657 32.3869" stroke="black" stroke-width="4.28587" stroke-linecap="round"/>
<path d="M103.688 13.1299V23.8284" stroke="black" stroke-width="4.28587" stroke-linecap="round"/>
<path d="M103.688 23.8282L112.276 19.5488" stroke="black" stroke-width="4.28587" stroke-linecap="round"/>
<path d="M103.689 23.8282L95.1006 19.5488" stroke="black" stroke-width="4.28587" stroke-linecap="round"/>
<path d="M103.688 23.8281L97.2473 32.3869" stroke="black" stroke-width="4.28587" stroke-linecap="round"/>
<path d="M103.688 23.8281L110.129 32.3869" stroke="black" stroke-width="4.28587" stroke-linecap="round"/>
<path fill-rule="evenodd" clip-rule="evenodd" d="M52.1609 2.43121C52.1609 3.61232 51.1991 4.57091 50.0139 4.57091C48.8288 4.57091 47.8669 3.61232 47.8669 2.43121C47.8669 1.25009 48.8288 0.291504 50.0139 0.291504C51.1991 0.291504 52.1609 1.25009 52.1609 2.43121Z" fill="black"/>
</svg>
