<svg width="24" height="24" viewBox="0 0 24 24" fill="none" xmlns="http://www.w3.org/2000/svg">
<path d="M23.14 10.607L2.253 0.162991C2.01554 0.0449423 1.75189 -0.0105839 1.48699 0.00166393C1.22209 0.0139118 0.964693 0.0935288 0.73914 0.232986C0.513586 0.372442 0.327334 0.567129 0.197996 0.798633C0.0686589 1.03014 0.000511817 1.29081 0 1.55599L0 22.443C0.000407617 22.7082 0.068505 22.9689 0.197843 23.2004C0.327181 23.432 0.513479 23.6266 0.739092 23.766C0.964706 23.9054 1.22217 23.9849 1.4871 23.997C1.75202 24.0091 2.01565 23.9533 2.253 23.835L23.14 13.392C23.3986 13.2627 23.616 13.0639 23.768 12.8179C23.9199 12.572 24.0004 12.2886 24.0004 11.9995C24.0004 11.7104 23.9199 11.427 23.768 11.181C23.616 10.9351 23.3986 10.7363 23.14 10.607Z" fill="white"/>
</svg>
