<svg width="22" height="22" viewBox="0 0 22 22" fill="none" xmlns="http://www.w3.org/2000/svg">
<path d="M19.6042 19.6648C19.6042 20.0176 19.4647 20.356 19.2162 20.6061C18.9677 20.8562 18.6303 20.9976 18.278 20.9995H3.69293C3.34054 20.9976 3.00322 20.8562 2.75471 20.6061C2.50619 20.356 2.36669 20.0176 2.3667 19.6648V18.3301H19.6042V19.6648Z" stroke="#23375A" stroke-width="1.5" stroke-linecap="round" stroke-linejoin="round"/>
<path d="M17.6147 12.9912H14.9632C13.2334 12.9912 12.7151 11.8593 12.7151 10.554C12.7151 8.37746 14.8769 7.05876 14.8769 4.89561C14.8769 3.86243 14.4669 2.87157 13.7371 2.141C13.0073 1.41043 12.0175 1 10.9853 1C9.95323 1 8.96338 1.41043 8.23357 2.141C7.50376 2.87157 7.09375 3.86243 7.09375 4.89561C7.09375 7.05876 9.25555 8.37746 9.25555 10.554C9.25555 11.8593 8.73732 12.9912 7.00753 12.9912H3.69283C0.492802 12.9912 0.48658 18.3301 1.90526 18.3301H20.0663C21.4459 18.3301 21.7837 12.9912 17.6147 12.9912Z" stroke="#23375A" stroke-width="1.5" stroke-linecap="round" stroke-linejoin="round"/>
</svg>
