<svg width="20" height="20" viewBox="0 0 20 20" fill="none" xmlns="http://www.w3.org/2000/svg">
<path d="M15.6257 8.08325L9.9999 2.45825L4.37573 8.08325H7.4999V13.7083C7.4999 13.874 7.56575 14.033 7.68296 14.1502C7.80017 14.2674 7.95914 14.3333 8.1249 14.3333H11.8749C12.0407 14.3333 12.1996 14.2674 12.3168 14.1502C12.4341 14.033 12.4999 13.874 12.4999 13.7083V8.08325H15.6257Z" stroke="white" stroke-width="1.25" stroke-linecap="round" stroke-linejoin="round"/>
<path d="M18 15V17C18 17.2652 17.8876 17.5196 17.6876 17.7071C17.4875 17.8946 17.2162 18 16.9333 18H3.06667C2.78377 18 2.51246 17.8946 2.31242 17.7071C2.11238 17.5196 2 17.2652 2 17V15" stroke="white" stroke-width="1.25" stroke-linecap="round" stroke-linejoin="round"/>
</svg>
