<svg width="194" height="194" viewBox="0 0 194 194" fill="none" xmlns="http://www.w3.org/2000/svg">
<path fill-rule="evenodd" clip-rule="evenodd" d="M46.1875 153.705H163.712V114.639H46.1875V153.705Z" fill="#3D83F3"/>
<path fill-rule="evenodd" clip-rule="evenodd" d="M104.786 153.705H152.532V114.64H104.786V153.705Z" fill="#2F6CCE"/>
<path fill-rule="evenodd" clip-rule="evenodd" d="M37.5061 153.705H85.2528V114.64H37.5061V153.705Z" fill="#EEEEEE"/>
<path fill-rule="evenodd" clip-rule="evenodd" d="M46.1875 153.705H143.069V114.639H46.1875V153.705Z" fill="#3D83F3"/>
<path fill-rule="evenodd" clip-rule="evenodd" d="M46.1873 114.639L163.77 114.639V31.7056L46.1873 31.7056V114.639Z" fill="#FFE100"/>
<path fill-rule="evenodd" clip-rule="evenodd" d="M104.786 114.64H152.532V31.9937L104.786 31.9937V114.64Z" fill="#FFA800"/>
<path fill-rule="evenodd" clip-rule="evenodd" d="M39.6763 114.64H87.4229V38.6792H39.6763V114.64Z" fill="white"/>
<path fill-rule="evenodd" clip-rule="evenodd" d="M46.187 114.64H142.979V31.9365L46.187 31.9365L46.187 114.64Z" fill="#FFE100"/>
<path fill-rule="evenodd" clip-rule="evenodd" d="M85.2529 90.7661V75.4741V60.3818L109.126 75.574L85.2529 90.7661Z" fill="#2F6CCE"/>
<path fill-rule="evenodd" clip-rule="evenodd" d="M100.96 72.7648L85.0151 62.6187C85.0563 63.3349 85.1214 64.0511 85.1475 64.7673C86.3889 70.3927 85.2907 77.6372 84.7568 83.0759L100.96 72.7648Z" fill="#3D83F3"/>
<path fill-rule="evenodd" clip-rule="evenodd" d="M81.9407 94.9819V75.4467V56.1665L112.439 75.5742L81.9407 94.9819Z" stroke="black" stroke-width="8" stroke-linecap="round" stroke-linejoin="round"/>
<path fill-rule="evenodd" clip-rule="evenodd" d="M39.6765 114.64H152.532V31.7656L39.6765 31.7656V114.64Z" stroke="black" stroke-width="8"/>
<path d="M74.4014 134.172L128.268 134.137" stroke="black" stroke-width="7" stroke-linecap="round" stroke-linejoin="round"/>
<path d="M85.2529 127.661V140.683" stroke="black" stroke-width="7" stroke-linecap="round" stroke-linejoin="round"/>
<path d="M51.4441 128.315V141.337" stroke="black" stroke-width="7" stroke-linecap="round" stroke-linejoin="round"/>
<path d="M61.3796 127.661V140.683" stroke="black" stroke-width="7" stroke-linecap="round" stroke-linejoin="round"/>
<path fill-rule="evenodd" clip-rule="evenodd" d="M39.6765 153.705H152.532V114.64H39.6765V153.705Z" stroke="black" stroke-width="8"/>
</svg>
