<svg width="20" height="20" viewBox="0 0 20 20" fill="none" xmlns="http://www.w3.org/2000/svg">
<path d="M10.0352 1.90938L5.09683 6.84854C5.05763 6.88751 5.0046 6.90939 4.94933 6.90938H3.12516C2.68314 6.90938 2.25921 7.08497 1.94665 7.39753C1.63409 7.71009 1.4585 8.13402 1.4585 8.57604V11.421C1.4585 11.8631 1.63409 12.287 1.94665 12.5996C2.25921 12.9121 2.68314 13.0877 3.12516 13.0877H4.94933C5.0047 13.088 5.05772 13.1102 5.09683 13.1494L10.0352 18.0877C10.1516 18.2044 10.3 18.284 10.4616 18.3163C10.6232 18.3487 10.7908 18.3324 10.9431 18.2695C11.0955 18.2066 11.2257 18.1 11.3175 17.963C11.4092 17.8261 11.4583 17.665 11.4585 17.5002V2.50021C11.459 2.33511 11.4104 2.17358 11.3189 2.03614C11.2274 1.8987 11.0971 1.79153 10.9447 1.72823C10.7922 1.66493 10.6243 1.64835 10.4624 1.6806C10.3005 1.71286 10.1518 1.79248 10.0352 1.90938Z" fill="white"/>
<path d="M16.1125 4.13822C15.9553 3.98642 15.7448 3.90243 15.5263 3.90433C15.3078 3.90623 15.0988 3.99387 14.9443 4.14837C14.7898 4.30288 14.7021 4.51189 14.7002 4.73039C14.6983 4.94889 14.7823 5.15939 14.9341 5.31656C15.5494 5.93135 16.0375 6.66137 16.3705 7.46489C16.7035 8.26841 16.8749 9.12968 16.8749 9.99947C16.8749 10.8693 16.7035 11.7305 16.3705 12.5341C16.0375 13.3376 15.5494 14.0676 14.9341 14.6824C14.7823 14.8396 14.6983 15.0501 14.7002 15.2686C14.7021 15.4871 14.7898 15.6961 14.9443 15.8506C15.0988 16.0051 15.3078 16.0927 15.5263 16.0946C15.7448 16.0965 15.9553 16.0125 16.1125 15.8607C16.8825 15.0912 17.4935 14.1775 17.9103 13.1718C18.3271 12.1661 18.5416 11.0881 18.5416 9.99947C18.5416 8.91082 18.3271 7.83284 17.9103 6.82713C17.4935 5.82143 16.8825 4.90772 16.1125 4.13822Z" fill="white"/>
<path d="M14.0719 6.24989C13.9963 6.16606 13.9044 6.09846 13.8019 6.05119C13.6994 6.00392 13.5884 5.97797 13.4755 5.97491C13.3627 5.97186 13.2504 5.99176 13.1455 6.03342C13.0405 6.07507 12.9452 6.13761 12.8652 6.21723C12.7852 6.29685 12.7221 6.3919 12.68 6.49661C12.6378 6.60132 12.6173 6.71351 12.6198 6.82636C12.6223 6.93922 12.6477 7.05039 12.6945 7.15314C12.7412 7.25588 12.8084 7.34805 12.8919 7.42406C13.5727 8.10794 13.9549 9.03365 13.9549 9.99864C13.9549 10.9636 13.5727 11.8893 12.8919 12.5732C12.8105 12.6497 12.7454 12.7418 12.7003 12.844C12.6552 12.9461 12.6312 13.0563 12.6295 13.1679C12.6279 13.2796 12.6487 13.3904 12.6907 13.4939C12.7327 13.5973 12.7951 13.6913 12.8741 13.7702C12.9532 13.849 13.0472 13.9112 13.1508 13.953C13.2543 13.9948 13.3652 14.0154 13.4769 14.0135C13.5885 14.0116 13.6986 13.9873 13.8007 13.942C13.9028 13.8967 13.9947 13.8314 14.071 13.7499C15.0624 12.7537 15.6191 11.4055 15.6192 10.0001C15.6194 8.59462 15.063 7.24629 14.0719 6.24989Z" fill="white"/>
</svg>
