<svg width="21" height="20" viewBox="0 0 21 20" fill="none" xmlns="http://www.w3.org/2000/svg">
<g clip-path="url(#clip0_353_3811)">
<path d="M18.5 15.88V15.255H17.25V15.88H18.5ZM2.125 16.3125H1.5H2.125ZM2.125 3.9375H1.5H2.125ZM3.8125 2.25V1.625V2.25ZM15.375 3.81V4.435H16.625V3.81H15.375ZM17.25 15.88V16.875H18.5V15.88H17.25ZM17.25 16.875C17.25 17.0076 17.1973 17.1348 17.1036 17.2286L17.9874 18.1124C18.3156 17.7842 18.5 17.3391 18.5 16.875H17.25ZM17.1036 17.2286C17.0098 17.3223 16.8826 17.375 16.75 17.375V18.625C17.2141 18.625 17.6592 18.4406 17.9874 18.1124L17.1036 17.2286ZM16.75 17.375H3.8125V18.625H16.75V17.375ZM3.8125 17.375C3.53071 17.375 3.26045 17.2631 3.0612 17.0638L2.17732 17.9477C2.61099 18.3814 3.19919 18.625 3.8125 18.625V17.375ZM3.0612 17.0638C2.86194 16.8645 2.75 16.5943 2.75 16.3125H1.5C1.5 16.9258 1.74364 17.514 2.17732 17.9477L3.0612 17.0638ZM2.75 16.3125V3.9375H1.5V16.3125H2.75ZM2.75 3.9375C2.75 3.65571 2.86194 3.38545 3.0612 3.1862L2.17732 2.30231C1.74364 2.73599 1.5 3.32419 1.5 3.9375H2.75ZM3.0612 3.1862C3.26045 2.98694 3.53071 2.875 3.8125 2.875V1.625C3.19919 1.625 2.61099 1.86863 2.17732 2.30231L3.0612 3.1862ZM3.8125 2.875H14.875V1.625H3.8125V2.875ZM14.875 2.875C15.0076 2.875 15.1348 2.92768 15.2286 3.02145L16.1124 2.13756C15.7842 1.80938 15.3391 1.625 14.875 1.625V2.875ZM15.2286 3.02145C15.3223 3.11522 15.375 3.24239 15.375 3.375H16.625C16.625 2.91087 16.4406 2.46575 16.1124 2.13756L15.2286 3.02145ZM15.375 3.375V3.81H16.625V3.375H15.375Z" fill="#6E788C" fill-opacity="0.5"/>
<path d="M18.2917 14.625C18.6121 14.625 18.9195 14.5065 19.1461 14.2955C19.3727 14.0845 19.5 13.7984 19.5 13.5V10.125C19.5 9.82663 19.3727 9.54048 19.1461 9.3295C18.9195 9.11853 18.6121 9 18.2917 9H15.2708C14.4697 9 13.7013 9.29632 13.1348 9.82376C12.5683 10.3512 12.25 11.0666 12.25 11.8125C12.25 12.5584 12.5683 13.2738 13.1348 13.8012C13.7013 14.3287 14.4697 14.625 15.2708 14.625H18.2917Z" stroke="#6E788C" stroke-opacity="0.5" stroke-width="1.25" stroke-linecap="round" stroke-linejoin="round"/>
<path d="M15.0625 11.5312C15.1181 11.5312 15.1725 11.5477 15.2188 11.5786C15.265 11.6096 15.3011 11.6535 15.3223 11.7049C15.3436 11.7563 15.3492 11.8128 15.3383 11.8674C15.3275 11.9219 15.3007 11.972 15.2614 12.0114C15.222 12.0507 15.1719 12.0775 15.1174 12.0883C15.0628 12.0992 15.0063 12.0936 14.9549 12.0723C14.9035 12.0511 14.8596 12.015 14.8286 11.9688C14.7977 11.9225 14.7812 11.8681 14.7812 11.8125C14.7812 11.7379 14.8109 11.6664 14.8636 11.6136C14.9164 11.5609 14.9879 11.5312 15.0625 11.5312Z" fill="#6E788C" fill-opacity="0.5" stroke="#6E788C" stroke-opacity="0.5" stroke-width="1.12" stroke-linecap="round" stroke-linejoin="round"/>
<path d="M17.2501 7.75011V8.37511H18.5001V7.75011H17.2501ZM5.7813 5.06261V4.43761C5.77151 4.43761 5.76172 4.43784 5.75194 4.4383L5.7813 5.06261ZM5.1159 4.0856C4.94704 3.78455 4.56609 3.67739 4.26504 3.84626C3.96399 4.01512 3.85683 4.39607 4.0257 4.69712L5.1159 4.0856ZM18.5001 7.75011V6.18761H17.2501V7.75011H18.5001ZM18.5001 6.18761C18.5001 5.72348 18.3157 5.27836 17.9875 4.95017L17.1036 5.83405C17.1974 5.92782 17.2501 6.055 17.2501 6.18761H18.5001ZM17.9875 4.95017C17.6593 4.62198 17.2142 4.43761 16.7501 4.43761V5.68761C16.8827 5.68761 17.0098 5.74029 17.1036 5.83405L17.9875 4.95017ZM16.7501 4.43761H5.7813V5.68761H16.7501V4.43761ZM5.75194 4.4383C5.62364 4.44433 5.49618 4.41453 5.38385 4.35224L4.77766 5.44542C5.09291 5.62023 5.45059 5.70385 5.81066 5.68692L5.75194 4.4383ZM5.38385 4.35224C5.27152 4.28995 5.17874 4.19763 5.1159 4.0856L4.0257 4.69712C4.20205 5.01151 4.46242 5.27061 4.77766 5.44542L5.38385 4.35224Z" fill="#6E788C" fill-opacity="0.5"/>
</g>
<defs>
<clipPath id="clip0_353_3811">
<rect width="19" height="18" fill="white" transform="translate(1.5 1)"/>
</clipPath>
</defs>
</svg>
