<svg width="18" height="20" viewBox="0 0 18 20" fill="none" xmlns="http://www.w3.org/2000/svg">
<path fill-rule="evenodd" clip-rule="evenodd" d="M8.16137 -0.000103983C8.20931 -3.23378e-05 8.25766 3.9903e-05 8.30643 3.9903e-05H9.69357C9.74234 3.9903e-05 9.79069 -3.23378e-05 9.83864 -0.000103983C10.5221 -0.00112453 11.122 -0.00202027 11.6565 0.208203C12.1239 0.392023 12.5376 0.690241 12.8598 1.07551C13.2283 1.51612 13.4171 2.08549 13.6323 2.73421C13.6474 2.77971 13.6626 2.82561 13.678 2.87188L13.7208 3.00004H17C17.5523 3.00004 18 3.44776 18 4.00004C18 4.55232 17.5523 5.00004 17 5.00004H16V14.2413C16 15.0463 16 15.7107 15.9558 16.2519C15.9099 16.814 15.8113 17.3307 15.564 17.816C15.1805 18.5687 14.5686 19.1806 13.816 19.5641C13.3306 19.8114 12.8139 19.9099 12.2518 19.9558C11.7106 20.0001 11.0463 20.0001 10.2413 20H7.75868C6.95372 20.0001 6.28936 20.0001 5.74817 19.9558C5.18608 19.9099 4.66937 19.8114 4.18404 19.5641C3.43139 19.1806 2.81947 18.5687 2.43597 17.816C2.18868 17.3307 2.09012 16.814 2.04419 16.2519C1.99998 15.7107 1.99999 15.0463 2 14.2413L2 5.00004H1C0.447715 5.00004 0 4.55232 0 4.00004C0 3.44776 0.447715 3.00004 1 3.00004H4.27924L4.32196 2.87188C4.33738 2.82562 4.3526 2.77972 4.3677 2.73422C4.58286 2.0855 4.77171 1.51612 5.14017 1.07551C5.46236 0.690241 5.87612 0.392023 6.3435 0.208203C6.87802 -0.00202027 7.47789 -0.00112453 8.16137 -0.000103983ZM4.97694 5.00004C4.99245 5.0004 5.00792 5.0004 5.02334 5.00004H12.9767C12.9921 5.0004 13.0076 5.0004 13.0231 5.00004H14V14.2C14 15.0566 13.9992 15.6389 13.9624 16.089C13.9266 16.5274 13.8617 16.7516 13.782 16.908C13.5903 17.2843 13.2843 17.5903 12.908 17.7821C12.7516 17.8617 12.5274 17.9267 12.089 17.9625C11.6389 17.9993 11.0566 18 10.2 18H7.8C6.94342 18 6.36113 17.9993 5.91104 17.9625C5.47262 17.9267 5.24842 17.8617 5.09202 17.7821C4.71569 17.5903 4.40973 17.2843 4.21799 16.908C4.1383 16.7516 4.07337 16.5274 4.03755 16.089C4.00078 15.6389 4 15.0566 4 14.2V5.00004H4.97694ZM11.6094 3.00004H6.39062C6.54424 2.56085 6.60391 2.44283 6.6744 2.35853C6.7818 2.23011 6.91972 2.1307 7.07551 2.06943C7.20921 2.01685 7.39173 2.00004 8.30643 2.00004H9.69357C10.6083 2.00004 10.7908 2.01685 10.9245 2.06943C11.0803 2.1307 11.2182 2.23011 11.3256 2.35853C11.3961 2.44283 11.4558 2.56085 11.6094 3.00004ZM7 7.00004C7.55228 7.00004 8 7.44776 8 8.00004V15C8 15.5523 7.55228 16 7 16C6.44772 16 6 15.5523 6 15V8.00004C6 7.44776 6.44772 7.00004 7 7.00004ZM11 7.00004C11.5523 7.00004 12 7.44776 12 8.00004V15C12 15.5523 11.5523 16 11 16C10.4477 16 10 15.5523 10 15V8.00004C10 7.44776 10.4477 7.00004 11 7.00004Z" fill="#6E788C"/>
</svg>
