<svg width="16" height="16" viewBox="0 0 16 16" fill="none" xmlns="http://www.w3.org/2000/svg">
<path fill-rule="evenodd" clip-rule="evenodd" d="M11.677 4.32304C9.64623 2.29232 6.35377 2.29232 4.32305 4.32304C3.60269 5.0434 3.13888 5.92036 2.92939 6.84368C2.83163 7.27456 2.40308 7.5446 1.9722 7.44684C1.54133 7.34907 1.27129 6.92053 1.36905 6.48965C1.64338 5.28059 2.25167 4.13168 3.19167 3.19167C5.84724 0.536109 10.1528 0.536109 12.8083 3.19167C13.2249 3.60829 13.574 3.97243 13.8667 4.29048V2.66667C13.8667 2.22484 14.2248 1.86667 14.6667 1.86667C15.1085 1.86667 15.4667 2.22484 15.4667 2.66667V6.66667C15.4667 7.10849 15.1085 7.46667 14.6667 7.46667H10.6667C10.2248 7.46667 9.86667 7.10849 9.86667 6.66667C9.86667 6.22484 10.2248 5.86667 10.6667 5.86667H13.1295C12.7965 5.48093 12.3296 4.97569 11.677 4.32304ZM14.0278 8.55316C14.4587 8.65092 14.7287 9.07947 14.631 9.51035C14.3566 10.7194 13.7483 11.8683 12.8083 12.8083C10.1528 15.4639 5.84724 15.4639 3.19167 12.8083C2.77506 12.3917 2.42599 12.0276 2.13333 11.7095V13.3333C2.13333 13.7752 1.77516 14.1333 1.33333 14.1333C0.891506 14.1333 0.533333 13.7752 0.533333 13.3333V9.33333C0.533333 8.8915 0.891506 8.53333 1.33333 8.53333H5.33333C5.77516 8.53333 6.13333 8.8915 6.13333 9.33333C6.13333 9.77516 5.77516 10.1333 5.33333 10.1333H2.87053C3.20349 10.5191 3.6704 11.0243 4.32305 11.677C6.35377 13.7077 9.64623 13.7077 11.677 11.677C12.3973 10.9566 12.8611 10.0796 13.0706 9.15632C13.1684 8.72544 13.5969 8.4554 14.0278 8.55316Z" fill="#6E788C"/>
</svg>
