<svg width="120" height="120" viewBox="0 0 120 120" fill="none" xmlns="http://www.w3.org/2000/svg">
<rect x="20" y="20" width="79" height="81" rx="10" fill="#FFE100" fill-opacity="0.45"/>
<rect x="30" y="29" width="79" height="81" rx="10" fill="#FFE100" fill-opacity="0.45"/>
<path d="M20 40V30C20 27.3478 21.0536 24.8043 22.9289 22.9289C24.8043 21.0536 27.3478 20 30 20H40M20 80V90C20 92.6522 21.0536 95.1957 22.9289 97.0711C24.8043 98.9464 27.3478 100 30 100H40M80 20H90C92.6522 20 95.1957 21.0536 97.0711 22.9289C98.9464 24.8043 100 27.3478 100 30V40M80 100H90C92.6522 100 95.1957 98.9464 97.0711 97.0711C98.9464 95.1957 100 92.6522 100 90V80" stroke="black" stroke-width="8" stroke-linecap="round" stroke-linejoin="round"/>
<path d="M45 48H45.05M75 48H75.05M47.5 73C50.79 76.2 55.3 78 60 78C64.7 78 69.21 76.2 72.5 73" stroke="black" stroke-width="8" stroke-linecap="round" stroke-linejoin="round"/>
</svg>
