<svg width="60" height="60" viewBox="0 0 60 60" fill="none" xmlns="http://www.w3.org/2000/svg">
<path fill-rule="evenodd" clip-rule="evenodd" d="M46.3335 58.783C51.5555 56.394 56.0195 52.307 58.8045 46.881C58.8355 46.82 58.8085 46.745 58.7455 46.718L37.7205 37.793L46.1755 58.72C46.2005 58.782 46.2725 58.811 46.3335 58.783Z" fill="#2BB47F"/>
<path fill-rule="evenodd" clip-rule="evenodd" d="M46.0216 58.068C49.7316 55.642 52.8666 52.261 55.0086 48.087C55.0396 48.027 55.0126 47.951 54.9506 47.925L39.0276 41.166L46.0216 58.068Z" fill="#3CD399"/>
<path fill-rule="evenodd" clip-rule="evenodd" d="M41.3471 3.20298C26.2231 -2.60802 9.2341 3.89898 3.3211 18.566C-2.5939 33.241 4.0401 50.304 18.6851 56.592C25.9881 59.728 33.8781 59.565 40.7241 56.844L10.0221 28L41.3471 3.20298Z" fill="white"/>
<path fill-rule="evenodd" clip-rule="evenodd" d="M29.9599 29.7015L56.9419 41.1545C62.6449 26.4265 56.3279 8.88054 41.5499 3.20254C26.4259 -2.60746 12.0889 3.89854 6.1769 18.5665C0.260898 33.2405 6.8949 50.3035 21.5399 56.5915C28.8439 59.7275 33.1759 59.5645 40.0219 56.8445L29.9599 29.7015Z" fill="#627EEA"/>
<path d="M5.6751 14.0001C4.7661 15.4181 3.9761 16.9421 3.3211 18.5661C-2.5939 33.2411 4.0401 50.3031 18.6851 56.5921C25.9881 59.7281 33.8781 59.5651 40.7241 56.8441L29.7571 29.7021L56.7401 41.1551C62.4421 26.4271 56.1251 8.88008 41.3471 3.20308C30.5911 -0.929922 18.8921 1.16808 10.9041 8.00008" stroke="black" stroke-width="2" stroke-linecap="round"/>
<path fill-rule="evenodd" clip-rule="evenodd" d="M9.02173 11C9.02173 10.448 8.57373 10 8.02173 10C7.46973 10 7.02173 10.448 7.02173 11C7.02173 11.552 7.46973 12 8.02173 12C8.57373 12 9.02173 11.552 9.02173 11Z" fill="black"/>
<path d="M56.9195 50.001C57.6115 49.017 58.2425 47.976 58.8045 46.881C58.8355 46.82 58.8085 46.745 58.7455 46.718L37.7205 37.793L46.1755 58.72C46.2005 58.782 46.2725 58.811 46.3335 58.783C48.4805 57.801 50.4985 56.532 52.3255 55.001" stroke="black" stroke-width="2" stroke-linecap="round"/>
<path fill-rule="evenodd" clip-rule="evenodd" d="M56.0217 53C56.0217 52.448 55.5737 52 55.0217 52C54.4697 52 54.0217 52.448 54.0217 53C54.0217 53.552 54.4697 54 55.0217 54C55.5737 54 56.0217 53.552 56.0217 53Z" fill="black"/>
</svg>
