<svg width="21" height="20" viewBox="0 0 21 20" fill="none" xmlns="http://www.w3.org/2000/svg">
<g clip-path="url(#clip0_730_1691)">
<path d="M15.8182 1.5H5.18182C4.52912 1.5 4 2.00368 4 2.625V17.25C4 17.8713 4.52912 18.375 5.18182 18.375H15.8182C16.4709 18.375 17 17.8713 17 17.25V2.625C17 2.00368 16.4709 1.5 15.8182 1.5Z" stroke="#6E788C" stroke-opacity="0.5" stroke-width="1.25" stroke-linecap="round" stroke-linejoin="round"/>
<path d="M13.9286 4H7.07143C6.75584 4 6.5 4.25184 6.5 4.5625V6.8125C6.5 7.12316 6.75584 7.375 7.07143 7.375H13.9286C14.2442 7.375 14.5 7.12316 14.5 6.8125V4.5625C14.5 4.25184 14.2442 4 13.9286 4Z" stroke="#6E788C" stroke-opacity="0.5" stroke-width="1.25" stroke-linecap="round" stroke-linejoin="round"/>
<path d="M10.4812 9.75C10.5368 9.75 10.5912 9.7665 10.6375 9.7974C10.6837 9.8283 10.7198 9.87223 10.741 9.92362C10.7623 9.97501 10.7679 10.0316 10.757 10.0861C10.7462 10.1407 10.7194 10.1908 10.6801 10.2301C10.6407 10.2695 10.5906 10.2962 10.5361 10.3071C10.4815 10.3179 10.425 10.3124 10.3736 10.2911C10.3222 10.2698 10.2783 10.2338 10.2474 10.1875C10.2164 10.1413 10.2 10.0869 10.2 10.0312C10.2 9.95666 10.2296 9.88512 10.2823 9.83238C10.3351 9.77963 10.4066 9.75 10.4812 9.75Z" fill="#6E788C" fill-opacity="0.5"/>
<path d="M10.4812 9.75C10.5368 9.75 10.5912 9.7665 10.6375 9.7974C10.6837 9.8283 10.7198 9.87223 10.741 9.92362C10.7623 9.97501 10.7679 10.0316 10.757 10.0861C10.7462 10.1407 10.7194 10.1908 10.6801 10.2301C10.6407 10.2695 10.5906 10.2962 10.5361 10.3071C10.4815 10.3179 10.425 10.3124 10.3736 10.2911C10.3222 10.2698 10.2783 10.2338 10.2474 10.1875C10.2164 10.1413 10.2 10.0869 10.2 10.0312C10.2 9.95666 10.2296 9.88512 10.2823 9.83238C10.3351 9.77963 10.4066 9.75 10.4812 9.75" stroke="#6E788C" stroke-opacity="0.5" stroke-width="1.25" stroke-linecap="round" stroke-linejoin="round"/>
<path d="M10.4812 12.5625C10.5368 12.5625 10.5912 12.579 10.6375 12.6099C10.6837 12.6408 10.7198 12.6847 10.741 12.7361C10.7623 12.7875 10.7679 12.8441 10.757 12.8986C10.7462 12.9532 10.7194 13.0033 10.6801 13.0426C10.6407 13.082 10.5906 13.1087 10.5361 13.1196C10.4815 13.1304 10.425 13.1249 10.3736 13.1036C10.3222 13.0823 10.2783 13.0463 10.2474 13C10.2164 12.9538 10.2 12.8994 10.2 12.8438C10.2 12.7692 10.2296 12.6976 10.2823 12.6449C10.3351 12.5921 10.4066 12.5625 10.4812 12.5625Z" fill="#6E788C" fill-opacity="0.5"/>
<path d="M10.4812 12.5625C10.5368 12.5625 10.5912 12.579 10.6375 12.6099C10.6837 12.6408 10.7198 12.6847 10.741 12.7361C10.7623 12.7875 10.7679 12.8441 10.757 12.8986C10.7462 12.9532 10.7194 13.0033 10.6801 13.0426C10.6407 13.082 10.5906 13.1087 10.5361 13.1196C10.4815 13.1304 10.425 13.1249 10.3736 13.1036C10.3222 13.0823 10.2783 13.0463 10.2474 13C10.2164 12.9538 10.2 12.8994 10.2 12.8438C10.2 12.7692 10.2296 12.6976 10.2823 12.6449C10.3351 12.5921 10.4066 12.5625 10.4812 12.5625" stroke="#6E788C" stroke-opacity="0.5" stroke-width="1.25" stroke-linecap="round" stroke-linejoin="round"/>
<path d="M10.4812 15.375C10.5368 15.375 10.5912 15.3915 10.6375 15.4224C10.6837 15.4533 10.7198 15.4972 10.741 15.5486C10.7623 15.6 10.7679 15.6566 10.757 15.7111C10.7462 15.7657 10.7194 15.8158 10.6801 15.8551C10.6407 15.8945 10.5906 15.9212 10.5361 15.9321C10.4815 15.9429 10.425 15.9374 10.3736 15.9161C10.3222 15.8948 10.2783 15.8588 10.2474 15.8125C10.2164 15.7663 10.2 15.7119 10.2 15.6562C10.2 15.5817 10.2296 15.5101 10.2823 15.4574C10.3351 15.4046 10.4066 15.375 10.4812 15.375Z" fill="#6E788C" fill-opacity="0.5"/>
<path d="M10.4812 15.375C10.5368 15.375 10.5912 15.3915 10.6375 15.4224C10.6837 15.4533 10.7198 15.4972 10.741 15.5486C10.7623 15.6 10.7679 15.6566 10.757 15.7111C10.7462 15.7657 10.7194 15.8158 10.6801 15.8551C10.6407 15.8945 10.5906 15.9212 10.5361 15.9321C10.4815 15.9429 10.425 15.9374 10.3736 15.9161C10.3222 15.8948 10.2783 15.8588 10.2474 15.8125C10.2164 15.7663 10.2 15.7119 10.2 15.6562C10.2 15.5817 10.2296 15.5101 10.2823 15.4574C10.3351 15.4046 10.4066 15.375 10.4812 15.375" stroke="#6E788C" stroke-opacity="0.5" stroke-width="1.25" stroke-linecap="round" stroke-linejoin="round"/>
<path d="M13.4812 9.75C13.5368 9.75 13.5912 9.7665 13.6375 9.7974C13.6837 9.8283 13.7198 9.87223 13.741 9.92362C13.7623 9.97501 13.7679 10.0316 13.757 10.0861C13.7462 10.1407 13.7194 10.1908 13.6801 10.2301C13.6407 10.2695 13.5906 10.2962 13.5361 10.3071C13.4815 10.3179 13.425 10.3124 13.3736 10.2911C13.3222 10.2698 13.2783 10.2338 13.2474 10.1875C13.2164 10.1413 13.2 10.0869 13.2 10.0312C13.2 9.95666 13.2296 9.88512 13.2823 9.83238C13.3351 9.77963 13.4066 9.75 13.4812 9.75Z" fill="white"/>
<path d="M13.4812 9.75C13.5368 9.75 13.5912 9.7665 13.6375 9.7974C13.6837 9.8283 13.7198 9.87223 13.741 9.92362C13.7623 9.97501 13.7679 10.0316 13.757 10.0861C13.7462 10.1407 13.7194 10.1908 13.6801 10.2301C13.6407 10.2695 13.5906 10.2962 13.5361 10.3071C13.4815 10.3179 13.425 10.3124 13.3736 10.2911C13.3222 10.2698 13.2783 10.2338 13.2474 10.1875C13.2164 10.1413 13.2 10.0869 13.2 10.0312C13.2 9.95666 13.2296 9.88512 13.2823 9.83238C13.3351 9.77963 13.4066 9.75 13.4812 9.75" stroke="white" stroke-width="1.25" stroke-linecap="round" stroke-linejoin="round"/>
<path d="M13.4812 12.5625C13.5368 12.5625 13.5912 12.579 13.6375 12.6099C13.6837 12.6408 13.7198 12.6847 13.741 12.7361C13.7623 12.7875 13.7679 12.8441 13.757 12.8986C13.7462 12.9532 13.7194 13.0033 13.6801 13.0426C13.6407 13.082 13.5906 13.1087 13.5361 13.1196C13.4815 13.1304 13.425 13.1249 13.3736 13.1036C13.3222 13.0823 13.2783 13.0463 13.2474 13C13.2164 12.9538 13.2 12.8994 13.2 12.8438C13.2 12.7692 13.2296 12.6976 13.2823 12.6449C13.3351 12.5921 13.4066 12.5625 13.4812 12.5625Z" fill="white"/>
<path d="M13.4812 12.5625C13.5368 12.5625 13.5912 12.579 13.6375 12.6099C13.6837 12.6408 13.7198 12.6847 13.741 12.7361C13.7623 12.7875 13.7679 12.8441 13.757 12.8986C13.7462 12.9532 13.7194 13.0033 13.6801 13.0426C13.6407 13.082 13.5906 13.1087 13.5361 13.1196C13.4815 13.1304 13.425 13.1249 13.3736 13.1036C13.3222 13.0823 13.2783 13.0463 13.2474 13C13.2164 12.9538 13.2 12.8994 13.2 12.8438C13.2 12.7692 13.2296 12.6976 13.2823 12.6449C13.3351 12.5921 13.4066 12.5625 13.4812 12.5625" stroke="white" stroke-width="1.25" stroke-linecap="round" stroke-linejoin="round"/>
<path d="M13.4812 15.375C13.5368 15.375 13.5912 15.3915 13.6375 15.4224C13.6837 15.4533 13.7198 15.4972 13.741 15.5486C13.7623 15.6 13.7679 15.6566 13.757 15.7111C13.7462 15.7657 13.7194 15.8158 13.6801 15.8551C13.6407 15.8945 13.5906 15.9212 13.5361 15.9321C13.4815 15.9429 13.425 15.9374 13.3736 15.9161C13.3222 15.8948 13.2783 15.8588 13.2474 15.8125C13.2164 15.7663 13.2 15.7119 13.2 15.6562C13.2 15.5817 13.2296 15.5101 13.2823 15.4574C13.3351 15.4046 13.4066 15.375 13.4812 15.375Z" fill="white"/>
<path d="M13.4812 15.375C13.5368 15.375 13.5912 15.3915 13.6375 15.4224C13.6837 15.4533 13.7198 15.4972 13.741 15.5486C13.7623 15.6 13.7679 15.6566 13.757 15.7111C13.7462 15.7657 13.7194 15.8158 13.6801 15.8551C13.6407 15.8945 13.5906 15.9212 13.5361 15.9321C13.4815 15.9429 13.425 15.9374 13.3736 15.9161C13.3222 15.8948 13.2783 15.8588 13.2474 15.8125C13.2164 15.7663 13.2 15.7119 13.2 15.6562C13.2 15.5817 13.2296 15.5101 13.2823 15.4574C13.3351 15.4046 13.4066 15.375 13.4812 15.375" stroke="white" stroke-width="1.25" stroke-linecap="round" stroke-linejoin="round"/>
<path d="M7.4812 9.75C7.53683 9.75 7.5912 9.7665 7.63746 9.7974C7.68371 9.8283 7.71975 9.87223 7.74104 9.92362C7.76233 9.97501 7.7679 10.0316 7.75705 10.0861C7.74619 10.1407 7.71941 10.1908 7.68008 10.2301C7.64074 10.2695 7.59063 10.2962 7.53607 10.3071C7.48151 10.3179 7.42496 10.3124 7.37357 10.2911C7.32218 10.2698 7.27825 10.2338 7.24735 10.1875C7.21645 10.1413 7.19995 10.0869 7.19995 10.0312C7.19995 9.95666 7.22958 9.88512 7.28233 9.83238C7.33507 9.77963 7.40661 9.75 7.4812 9.75Z" fill="white"/>
<path d="M7.4812 9.75C7.53683 9.75 7.5912 9.7665 7.63746 9.7974C7.68371 9.8283 7.71975 9.87223 7.74104 9.92362C7.76233 9.97501 7.7679 10.0316 7.75705 10.0861C7.74619 10.1407 7.71941 10.1908 7.68008 10.2301C7.64074 10.2695 7.59063 10.2962 7.53607 10.3071C7.48151 10.3179 7.42496 10.3124 7.37357 10.2911C7.32218 10.2698 7.27825 10.2338 7.24735 10.1875C7.21645 10.1413 7.19995 10.0869 7.19995 10.0312C7.19995 9.95666 7.22958 9.88512 7.28233 9.83238C7.33507 9.77963 7.40661 9.75 7.4812 9.75" stroke="white" stroke-width="1.25" stroke-linecap="round" stroke-linejoin="round"/>
<path d="M7.4812 12.5625C7.53683 12.5625 7.5912 12.579 7.63746 12.6099C7.68371 12.6408 7.71975 12.6847 7.74104 12.7361C7.76233 12.7875 7.7679 12.8441 7.75705 12.8986C7.74619 12.9532 7.71941 13.0033 7.68008 13.0426C7.64074 13.082 7.59063 13.1087 7.53607 13.1196C7.48151 13.1304 7.42496 13.1249 7.37357 13.1036C7.32218 13.0823 7.27825 13.0463 7.24735 13C7.21645 12.9538 7.19995 12.8994 7.19995 12.8438C7.19995 12.7692 7.22958 12.6976 7.28233 12.6449C7.33507 12.5921 7.40661 12.5625 7.4812 12.5625Z" fill="white"/>
<path d="M7.4812 12.5625C7.53683 12.5625 7.5912 12.579 7.63746 12.6099C7.68371 12.6408 7.71975 12.6847 7.74104 12.7361C7.76233 12.7875 7.7679 12.8441 7.75705 12.8986C7.74619 12.9532 7.71941 13.0033 7.68008 13.0426C7.64074 13.082 7.59063 13.1087 7.53607 13.1196C7.48151 13.1304 7.42496 13.1249 7.37357 13.1036C7.32218 13.0823 7.27825 13.0463 7.24735 13C7.21645 12.9538 7.19995 12.8994 7.19995 12.8438C7.19995 12.7692 7.22958 12.6976 7.28233 12.6449C7.33507 12.5921 7.40661 12.5625 7.4812 12.5625" stroke="white" stroke-width="1.25" stroke-linecap="round" stroke-linejoin="round"/>
<path d="M7.4812 15.375C7.53683 15.375 7.5912 15.3915 7.63746 15.4224C7.68371 15.4533 7.71975 15.4972 7.74104 15.5486C7.76233 15.6 7.7679 15.6566 7.75705 15.7111C7.74619 15.7657 7.71941 15.8158 7.68008 15.8551C7.64074 15.8945 7.59063 15.9212 7.53607 15.9321C7.48151 15.9429 7.42496 15.9374 7.37357 15.9161C7.32218 15.8948 7.27825 15.8588 7.24735 15.8125C7.21645 15.7663 7.19995 15.7119 7.19995 15.6562C7.19995 15.5817 7.22958 15.5101 7.28233 15.4574C7.33507 15.4046 7.40661 15.375 7.4812 15.375Z" fill="white"/>
<path d="M7.4812 15.375C7.53683 15.375 7.5912 15.3915 7.63746 15.4224C7.68371 15.4533 7.71975 15.4972 7.74104 15.5486C7.76233 15.6 7.7679 15.6566 7.75705 15.7111C7.74619 15.7657 7.71941 15.8158 7.68008 15.8551C7.64074 15.8945 7.59063 15.9212 7.53607 15.9321C7.48151 15.9429 7.42496 15.9374 7.37357 15.9161C7.32218 15.8948 7.27825 15.8588 7.24735 15.8125C7.21645 15.7663 7.19995 15.7119 7.19995 15.6562C7.19995 15.5817 7.22958 15.5101 7.28233 15.4574C7.33507 15.4046 7.40661 15.375 7.4812 15.375" stroke="white" stroke-width="1.25" stroke-linecap="round" stroke-linejoin="round"/>
</g>
<defs>
<clipPath id="clip0_730_1691">
<rect width="15" height="19" fill="white" transform="translate(3 0.5)"/>
</clipPath>
</defs>
</svg>
