<svg width="20" height="20" viewBox="0 0 20 20" fill="none" xmlns="http://www.w3.org/2000/svg">
<g id="circle-question">
<path id="Icon (Stroke)" fill-rule="evenodd" clip-rule="evenodd" d="M9.99996 3.33317C6.31806 3.33317 3.33329 6.31794 3.33329 9.99984C3.33329 13.6817 6.31806 16.6665 9.99996 16.6665C13.6819 16.6665 16.6666 13.6817 16.6666 9.99984C16.6666 6.31794 13.6819 3.33317 9.99996 3.33317ZM1.66663 9.99984C1.66663 5.39746 5.39759 1.6665 9.99996 1.6665C14.6023 1.6665 18.3333 5.39746 18.3333 9.99984C18.3333 14.6022 14.6023 18.3332 9.99996 18.3332C5.39759 18.3332 1.66663 14.6022 1.66663 9.99984ZM9.97245 7.70817C9.58529 7.70817 9.25788 7.97295 9.16532 8.33255C9.05061 8.77826 8.59629 9.04659 8.15058 8.93187C7.70487 8.81715 7.43654 8.36283 7.55126 7.91712C7.82874 6.83903 8.80641 6.0415 9.97245 6.0415C11.3532 6.0415 12.4725 7.16079 12.4725 8.5415C12.4725 9.31767 12.0937 9.83259 11.697 10.2155C11.5363 10.3706 11.3533 10.5222 11.1888 10.6586C11.1645 10.6787 11.1407 10.6985 11.1174 10.7179C10.9253 10.8776 10.7416 11.0342 10.5617 11.2141C10.2363 11.5395 9.70865 11.5395 9.38321 11.2141C9.05778 10.8887 9.05778 10.361 9.38321 10.0356C9.62001 9.79879 9.85293 9.60173 10.0515 9.43653C10.0778 9.41465 10.1032 9.39357 10.1278 9.3732C10.2983 9.23168 10.4276 9.12431 10.5396 9.01624C10.7679 8.7959 10.8058 8.68581 10.8058 8.5415C10.8058 8.08127 10.4327 7.70817 9.97245 7.70817ZM9.9808 13.9582H9.97247C9.51223 13.9582 9.13914 13.5851 9.13914 13.1248C9.13914 12.6646 9.51223 12.2915 9.97247 12.2915H9.9808C10.441 12.2915 10.8141 12.6646 10.8141 13.1248C10.8141 13.5851 10.441 13.9582 9.9808 13.9582Z" fill="#808191"/>
</g>
</svg>
