<svg width="59" height="60" viewBox="0 0 59 60" fill="none" xmlns="http://www.w3.org/2000/svg">
<path fill-rule="evenodd" clip-rule="evenodd" d="M15.0574 49.997L24.4224 59.362C25.3284 60.268 26.8634 60.202 27.8504 59.214L57.0584 30.225L55.0224 5L15.0574 49.997Z" fill="#FFE100"/>
<path fill-rule="evenodd" clip-rule="evenodd" d="M12.0217 48.9962L21.3867 58.3612C22.2927 59.2672 23.8277 59.2012 24.8147 58.2132L54.0227 29.2242L54.9857 6.90723L12.0217 48.9962Z" fill="#FFA800"/>
<path fill-rule="evenodd" clip-rule="evenodd" d="M10.9698 47.0011L1.60482 37.6361C0.698824 36.7301 0.764824 35.1951 1.75282 34.2081L30.7418 5.00013L53.0588 4.03613L10.9698 47.0011Z" fill="white"/>
<path fill-rule="evenodd" clip-rule="evenodd" d="M20.4878 56.5191L3.40977 39.4411C2.58577 38.6171 2.71877 37.1491 3.70577 36.1621L32.7048 6.96413L54.0588 5.03613L52.0488 27.3071L23.7678 56.2231C22.7798 57.2101 21.3118 57.3431 20.4878 56.5191Z" fill="#FFE100"/>
<path fill-rule="evenodd" clip-rule="evenodd" d="M48.0217 15C48.0217 17.209 46.2307 19 44.0217 19C41.8127 19 40.0217 17.209 40.0217 15C40.0217 12.791 41.8127 11 44.0217 11C46.2307 11 48.0217 12.791 48.0217 15Z" fill="white"/>
<path d="M14.4794 28.2021L5.99438 36.6871" stroke="black" stroke-width="2" stroke-linecap="round"/>
<path d="M16.6007 30.3232L12.3577 34.5662" stroke="black" stroke-width="2" stroke-linecap="round"/>
<path d="M19.429 33.1523L15.186 37.3953" stroke="black" stroke-width="2" stroke-linecap="round"/>
<path d="M21.5504 35.2734L17.3074 39.5164" stroke="black" stroke-width="2" stroke-linecap="round"/>
<path d="M25.086 38.8086L20.843 43.0516" stroke="black" stroke-width="2" stroke-linecap="round"/>
<path d="M27.2071 40.9297L22.9641 45.1727" stroke="black" stroke-width="2" stroke-linecap="round"/>
<path d="M29.3284 43.0518L25.0854 47.2948" stroke="black" stroke-width="2" stroke-linecap="round"/>
<path d="M31.4498 45.1729L22.9648 53.6579" stroke="black" stroke-width="2" stroke-linecap="round"/>
<path d="M26.022 9.758L30.741 5H54.022V29.28L25.804 58.259C24.817 59.246 23.216 59.246 22.228 58.259L1.76198 37.793C0.774979 36.806 0.774979 35.205 1.76198 34.217L21.022 14.8" stroke="black" stroke-width="2" stroke-linecap="round"/>
<path fill-rule="evenodd" clip-rule="evenodd" d="M24.5532 12.4375C24.5532 12.9895 24.1052 13.4375 23.5532 13.4375C23.0012 13.4375 22.5532 12.9895 22.5532 12.4375C22.5532 11.8855 23.0012 11.4375 23.5532 11.4375C24.1052 11.4375 24.5532 11.8855 24.5532 12.4375Z" fill="black"/>
<path fill-rule="evenodd" clip-rule="evenodd" d="M48.0217 15C48.0217 17.209 46.2307 19 44.0217 19C41.8127 19 40.0217 17.209 40.0217 15C40.0217 12.791 41.8127 11 44.0217 11C46.2307 11 48.0217 12.791 48.0217 15Z" stroke="black" stroke-width="2" stroke-linecap="round"/>
<path d="M58.0217 1L44.0217 15" stroke="black" stroke-width="2" stroke-linecap="round"/>
<path d="M9.52951 37.3945L8.82251 38.1015" stroke="black" stroke-width="2" stroke-linecap="round"/>
<path d="M12.3581 40.2227L11.6511 40.9297" stroke="black" stroke-width="2" stroke-linecap="round"/>
<path d="M14.4792 42.3447L13.7722 43.0517" stroke="black" stroke-width="2" stroke-linecap="round"/>
<path d="M18.0149 45.8799L17.3079 46.5869" stroke="black" stroke-width="2" stroke-linecap="round"/>
<path d="M20.1362 48.001L19.4292 48.708" stroke="black" stroke-width="2" stroke-linecap="round"/>
<path d="M22.2575 50.1221L21.5505 50.8291" stroke="black" stroke-width="2" stroke-linecap="round"/>
</svg>
