<svg width="84" height="85" viewBox="0 0 84 85" fill="none" xmlns="http://www.w3.org/2000/svg">
<path fill-rule="evenodd" clip-rule="evenodd" d="M6.80762 81.8248H83.7545V23.7517L6.80762 23.7517L6.80762 81.8248Z" fill="#3CD399" fill-opacity="0.18"/>
<path fill-rule="evenodd" clip-rule="evenodd" d="M8.25977 76.0176H73.592V29.5591L8.25977 29.5591L8.25977 76.0176Z" fill="#3CD399" fill-opacity="0.17"/>
<path fill-rule="evenodd" clip-rule="evenodd" d="M47.4584 7.78168C47.4584 10.9888 44.8581 13.589 41.6511 13.589C38.444 13.589 35.8438 10.9888 35.8438 7.78168C35.8438 4.57459 38.444 1.97437 41.6511 1.97437C44.8581 1.97437 47.4584 4.57459 47.4584 7.78168Z" fill="#FFA800"/>
<path fill-rule="evenodd" clip-rule="evenodd" d="M43.1029 7.78168C43.1029 10.9888 41.4783 13.589 39.4733 13.589C37.4683 13.589 35.8438 10.9888 35.8438 7.78168C35.8438 4.57459 37.4683 1.97437 39.4733 1.97437C41.4783 1.97437 43.1029 4.57459 43.1029 7.78168Z" fill="#FFE100"/>
<path fill-rule="evenodd" clip-rule="evenodd" d="M8.25977 76.0176H73.592V29.5591L8.25977 29.5591L8.25977 76.0176Z" stroke="#545454" stroke-width="3"/>
<path fill-rule="evenodd" clip-rule="evenodd" d="M2.45215 81.8248H79.399V23.7517L2.45215 23.7517L2.45215 81.8248Z" stroke="#545454" stroke-width="3"/>
<path fill-rule="evenodd" clip-rule="evenodd" d="M47.4584 7.78168C47.4584 10.9888 44.8581 13.589 41.6511 13.589C38.444 13.589 35.8438 10.9888 35.8438 7.78168C35.8438 4.57459 38.444 1.97437 41.6511 1.97437C44.8581 1.97437 47.4584 4.57459 47.4584 7.78168Z" stroke="#545454" stroke-width="3" stroke-linejoin="round"/>
<path fill-rule="evenodd" clip-rule="evenodd" d="M45.9768 3.94043C46.8885 4.96542 47.4591 6.3011 47.4591 7.78197C47.4591 10.9891 44.8589 13.5893 41.6518 13.5893C38.4447 13.5893 35.8445 10.9891 35.8445 7.78197C35.8445 6.3011 36.415 4.96542 37.3268 3.94043C28.822 9.29477 12.6152 23.7521 12.6152 23.7521H70.6883C70.6883 23.7521 54.4801 9.29477 45.9768 3.94043Z" stroke="#545454" stroke-width="3" stroke-linejoin="round"/>
<path d="M56 53C56 60.732 49.732 67 42 67C34.268 67 28 60.732 28 53C28 45.268 34.268 39 42 39C49.732 39 56 45.268 56 53ZM40.3806 60.4129L50.7677 50.0258C51.1204 49.6731 51.1204 49.1012 50.7677 48.7485L49.4904 47.4711C49.1377 47.1184 48.5658 47.1184 48.213 47.4711L39.7419 55.9421L35.787 51.9872C35.4343 51.6345 34.8624 51.6345 34.5096 51.9872L33.2323 53.2645C32.8796 53.6172 32.8796 54.1892 33.2323 54.5419L39.1032 60.4128C39.456 60.7656 40.0279 60.7656 40.3806 60.4129Z" fill="#3CD399"/>
</svg>
