<svg width="96" height="93" viewBox="0 0 96 93" fill="none" xmlns="http://www.w3.org/2000/svg">
<path fill-rule="evenodd" clip-rule="evenodd" d="M21.3781 89.8585L95.7031 69.9432L80.6726 13.8488L6.34766 33.7642L21.3781 89.8585Z" fill="#D8D8D8"/>
<path fill-rule="evenodd" clip-rule="evenodd" d="M21.3781 89.8585L91.496 71.0704L76.4655 14.9761L6.34766 33.7642L21.3781 89.8585Z" fill="#D8D8D8"/>
<path fill-rule="evenodd" clip-rule="evenodd" d="M21.2773 83.8735L84.3834 66.9643L72.359 22.0888L9.25293 38.998L21.2773 83.8735Z" fill="#D8D8D8"/>
<path fill-rule="evenodd" clip-rule="evenodd" d="M41.4797 7.81697C42.3098 10.9148 40.4711 14.0994 37.3733 14.9294C34.2755 15.7595 31.0909 13.9209 30.2609 10.8231C29.4308 7.72525 31.2694 4.54064 34.3672 3.71058C37.4651 2.88053 40.6497 4.71916 41.4797 7.81697Z" fill="#FFA800"/>
<path fill-rule="evenodd" clip-rule="evenodd" d="M37.2726 8.94425C38.1027 12.0421 37.2064 14.9742 35.2698 15.4931C33.3331 16.012 31.0909 13.9209 30.2609 10.8231C29.4308 7.72525 30.3271 4.79315 32.2637 4.27422C34.2004 3.7553 36.4426 5.84644 37.2726 8.94425Z" fill="#FFE100"/>
<path fill-rule="evenodd" clip-rule="evenodd" d="M21.2773 83.8735L84.3834 66.9643L72.359 22.0888L9.25293 38.998L21.2773 83.8735Z" stroke="#545454" stroke-width="3"/>
<path fill-rule="evenodd" clip-rule="evenodd" d="M17.1711 90.9859L91.496 71.0706L76.4656 14.9763L2.14062 34.8916L17.1711 90.9859Z" stroke="#545454" stroke-width="3"/>
<path fill-rule="evenodd" clip-rule="evenodd" d="M41.4797 7.81697C42.3098 10.9148 40.4711 14.0994 37.3733 14.9294C34.2755 15.7595 31.0909 13.9209 30.2609 10.8231C29.4308 7.72525 31.2694 4.54064 34.3672 3.71058C37.4651 2.88052 40.6497 4.71916 41.4797 7.81697Z" stroke="#545454" stroke-width="3" stroke-linejoin="round"/>
<path fill-rule="evenodd" clip-rule="evenodd" d="M39.0539 4.4904C40.1999 5.24448 41.0967 6.38698 41.48 7.81738C42.31 10.9152 40.4714 14.0998 37.3736 14.9299C34.2758 15.7599 31.0911 13.9213 30.2611 10.8235C29.8778 9.39306 30.0832 7.95522 30.6986 6.72918C23.8694 14.1023 11.9567 32.2616 11.9567 32.2616L68.051 17.2311C68.051 17.2311 48.6533 7.46146 39.0539 4.4904Z" stroke="#545454" stroke-width="3" stroke-linejoin="round"/>
<path d="M42.3821 40.4088C35.979 42.1245 32.1811 48.7026 33.8968 55.1058C35.6126 61.5089 42.1906 65.3068 48.5938 63.591C54.9969 61.8753 58.7948 55.2973 57.0791 48.8941C55.3633 42.4909 48.7853 38.6931 42.3821 40.4088ZM51.9866 53.5197C52.2651 53.6805 52.3603 54.0358 52.1995 54.3143L50.8434 56.6564C50.6825 56.9349 50.3273 57.0301 50.0488 56.8693L46.1893 54.6173L43.9681 58.4986C43.8073 58.7771 43.4521 58.8723 43.1736 58.7115L40.8315 57.3553C40.553 57.1945 40.4578 56.8393 40.6186 56.5608L42.8706 52.7012L38.9893 50.4801C38.7108 50.3193 38.6156 49.9641 38.7764 49.6856L40.1313 47.3388C40.2921 47.0603 40.6473 46.9651 40.9259 47.1259L44.7866 49.3826L47.0078 45.5013C47.1686 45.2227 47.5238 45.1276 47.8023 45.2884L50.1491 46.6433C50.4276 46.8041 50.5228 47.1593 50.362 47.4378L48.1053 51.2986L51.9866 53.5197Z" fill="#6E788C"/>
</svg>
