<svg width="151" height="167" viewBox="0 0 151 167" fill="none" xmlns="http://www.w3.org/2000/svg">
<g clip-path="url(#clip0_14_211)">
<path fill-rule="evenodd" clip-rule="evenodd" d="M27.573 131.252H151V38.0992H27.573V131.252Z" fill="#3CD399"/>
<path fill-rule="evenodd" clip-rule="evenodd" d="M27.573 131.252H144.014V38.0992H27.573V131.252Z" fill="#3CD399"/>
<path fill-rule="evenodd" clip-rule="evenodd" d="M29.9019 121.936H134.698V47.4145H29.9019V121.936Z" fill="#3CD399"/>
<path fill-rule="evenodd" clip-rule="evenodd" d="M61.5014 69.6984C61.5014 75.574 56.7366 80.3387 50.861 80.3387C44.9855 80.3387 40.2207 75.574 40.2207 69.6984C40.2207 63.8228 44.9855 59.058 50.861 59.058C56.7366 59.058 61.5014 63.8228 61.5014 69.6984Z" fill="#FFA800"/>
<path fill-rule="evenodd" clip-rule="evenodd" d="M53.5113 69.6984C53.5113 75.574 50.8332 80.3387 47.5286 80.3387C44.224 80.3387 41.5459 75.574 41.5459 69.6984C41.5459 63.8228 44.224 59.058 47.5286 59.058C50.8332 59.058 53.5113 63.8228 53.5113 69.6984Z" fill="#FFE100"/>
<path fill-rule="evenodd" clip-rule="evenodd" d="M92.7799 12.4824C92.7799 17.6267 88.609 21.7976 83.4647 21.7976C78.3203 21.7976 74.1494 17.6267 74.1494 12.4824C74.1494 7.33802 78.3203 3.16711 83.4647 3.16711C88.609 3.16711 92.7799 7.33802 92.7799 12.4824Z" fill="#FFA800"/>
<path fill-rule="evenodd" clip-rule="evenodd" d="M85.7935 12.4824C85.7935 17.6267 83.1875 21.7976 79.9714 21.7976C76.7554 21.7976 74.1494 17.6267 74.1494 12.4824C74.1494 7.33802 76.7554 3.16711 79.9714 3.16711C83.1875 3.16711 85.7935 7.33802 85.7935 12.4824Z" fill="#FFE100"/>
<path fill-rule="evenodd" clip-rule="evenodd" d="M29.9019 121.936H134.698V47.4145H29.9019V121.936Z" stroke="black" stroke-width="4.62615"/>
<path fill-rule="evenodd" clip-rule="evenodd" d="M61.5014 69.6984C61.5014 75.574 56.7366 80.3387 50.861 80.3387C44.9855 80.3387 40.2207 75.574 40.2207 69.6984C40.2207 63.8228 44.9855 59.058 50.861 59.058C56.7366 59.058 61.5014 63.8228 61.5014 69.6984Z" stroke="black" stroke-width="4.62615"/>
<path d="M29.9019 121.937L69.5312 87.0439L95.069 112.582" stroke="black" stroke-width="4.62615" stroke-linecap="round" stroke-linejoin="round"/>
<path d="M82.3 99.8128L106.753 73.0315L134.698 98.6484" stroke="black" stroke-width="4.62615" stroke-linecap="round" stroke-linejoin="round"/>
<path fill-rule="evenodd" clip-rule="evenodd" d="M20.5867 131.252H144.014V38.0992H20.5867V131.252Z" stroke="black" stroke-width="4.62615"/>
<path fill-rule="evenodd" clip-rule="evenodd" d="M92.7799 12.4824C92.7799 17.6267 88.609 21.7976 83.4647 21.7976C78.3203 21.7976 74.1494 17.6267 74.1494 12.4824C74.1494 7.33802 78.3203 3.16711 83.4647 3.16711C88.609 3.16711 92.7799 7.33802 92.7799 12.4824Z" stroke="black" stroke-width="4.62615" stroke-linejoin="round"/>
<path fill-rule="evenodd" clip-rule="evenodd" d="M90.402 6.32068C91.8644 7.96482 92.7797 10.1073 92.7797 12.4827C92.7797 17.6271 88.6088 21.798 83.4644 21.798C78.3201 21.798 74.1492 17.6271 74.1492 12.4827C74.1492 10.1073 75.0644 7.96482 76.5269 6.32068C62.8847 14.9093 36.8882 38.0996 36.8882 38.0996H130.041C130.041 38.0996 104.042 14.9093 90.402 6.32068Z" stroke="black" stroke-width="4.62615" stroke-linejoin="round"/>
</g>
<path d="M53.3503 140.371L72.9074 160.346" stroke="#FFE100" stroke-width="5.89347" stroke-linecap="round" stroke-linejoin="round"/>
<path fill-rule="evenodd" clip-rule="evenodd" d="M61.1252 122.135C61.1252 138.185 48.1129 151.197 32.0626 151.197C16.0123 151.197 3 138.185 3 122.135C3 106.084 16.0123 93.0721 32.0626 93.0721C48.1129 93.0721 61.1252 106.084 61.1252 122.135Z" fill="#FFA800"/>
<path fill-rule="evenodd" clip-rule="evenodd" d="M52.2248 122.135C52.2248 134.856 44.0514 145.67 32.6678 149.607C29.6892 150.637 35.3913 151.197 32.0626 151.197C16.0123 151.197 3 138.185 3 122.135C3 106.084 16.0123 93.0721 32.0626 93.0721C35.3943 93.0721 29.6921 93.6329 32.6737 94.6653C44.0543 98.6052 52.2248 109.416 52.2248 122.135Z" fill="#FFE100"/>
<path fill-rule="evenodd" clip-rule="evenodd" d="M61.1252 122.135C61.1252 138.185 48.1129 151.197 32.0626 151.197C16.0123 151.197 3 138.185 3 122.135C3 106.084 16.0123 93.0721 32.0626 93.0721C48.1129 93.0721 61.1252 106.084 61.1252 122.135Z" stroke="black" stroke-width="5.89347"/>
<path d="M51.613 143.638L71.1701 163.614" stroke="black" stroke-width="5.89347" stroke-linecap="round"/>
<defs>
<clipPath id="clip0_14_211">
<rect width="132.742" height="135.071" fill="white" transform="translate(18.2576)"/>
</clipPath>
</defs>
</svg>