<svg width="174" height="145" viewBox="0 0 174 145" fill="none" xmlns="http://www.w3.org/2000/svg">
<path fill-rule="evenodd" clip-rule="evenodd" d="M72.5005 60.6936H116V26.0116H72.5005V60.6936Z" fill="#FFE100"/>
<path fill-rule="evenodd" clip-rule="evenodd" d="M63.8003 60.6936H107.3V26.0116H63.8003V60.6936Z" fill="#FFA800"/>
<path fill-rule="evenodd" clip-rule="evenodd" d="M63.8003 60.6936H98.6003V26.0116H63.8003V60.6936Z" fill="#FFE100"/>
<path fill-rule="evenodd" clip-rule="evenodd" d="M142.101 141.618H89.9006C73.9506 141.618 60.9006 128.613 60.9006 112.717C60.9006 96.8208 73.9506 83.815 89.9006 83.815H142.101C158.051 83.815 171.101 96.8208 171.101 112.717C171.101 128.613 158.051 141.618 142.101 141.618Z" fill="#315ED8"/>
<path fill-rule="evenodd" clip-rule="evenodd" d="M84.1006 141.618H31.9006C15.9506 141.618 2.90063 128.613 2.90063 112.717C2.90063 96.8208 15.9506 83.815 31.9006 83.815H84.1006C100.051 83.815 113.101 96.8208 113.101 112.717C113.101 128.613 100.051 141.618 84.1006 141.618Z" fill="white"/>
<path fill-rule="evenodd" clip-rule="evenodd" d="M133.401 141.618H40.6006C24.6506 141.618 11.6006 128.613 11.6006 112.717C11.6006 96.8208 24.6506 83.815 40.6006 83.815H133.401C149.351 83.815 162.401 96.8208 162.401 112.717C162.401 128.613 149.351 141.618 133.401 141.618Z" fill="#3D83F3"/>
<path fill-rule="evenodd" clip-rule="evenodd" d="M63.8003 60.6936H107.3V26.0116H63.8003V60.6936Z" stroke="black" stroke-width="5.78908" stroke-linecap="round" stroke-linejoin="round"/>
<path fill-rule="evenodd" clip-rule="evenodd" d="M72.5005 26.0116V15.896C72.5005 8.74285 78.373 2.89026 85.5505 2.89026C92.728 2.89026 98.6005 8.74285 98.6005 15.896V26.0116H72.5005Z" stroke="black" stroke-width="5.78908" stroke-linecap="round" stroke-linejoin="round"/>
<path d="M78.3006 83.815H142.101C158.051 83.815 171.101 96.8208 171.101 112.717C171.101 128.613 158.051 141.618 142.101 141.618H31.9006C15.9506 141.618 2.90063 128.613 2.90063 112.717C2.90063 96.8208 15.9506 83.815 31.9006 83.815H55.1006" stroke="black" stroke-width="5.78908" stroke-linecap="round"/>
<path d="M34.8005 98.2658V112.717" stroke="black" stroke-width="5.78908" stroke-linecap="round"/>
<path d="M34.8005 112.717L46.4005 106.936" stroke="black" stroke-width="5.78908" stroke-linecap="round"/>
<path d="M34.8007 112.717L23.2007 106.936" stroke="black" stroke-width="5.78908" stroke-linecap="round"/>
<path d="M34.8003 112.717L26.1003 124.277" stroke="black" stroke-width="5.78908" stroke-linecap="round"/>
<path d="M34.8005 112.717L43.5005 124.277" stroke="black" stroke-width="5.78908" stroke-linecap="round"/>
<path d="M69.6003 98.2658V112.717" stroke="black" stroke-width="5.78908" stroke-linecap="round"/>
<path d="M69.6003 112.717L81.2003 106.936" stroke="black" stroke-width="5.78908" stroke-linecap="round"/>
<path d="M69.6005 112.717L58.0005 106.936" stroke="black" stroke-width="5.78908" stroke-linecap="round"/>
<path d="M69.6006 112.717L60.9006 124.277" stroke="black" stroke-width="5.78908" stroke-linecap="round"/>
<path d="M69.6003 112.717L78.3003 124.277" stroke="black" stroke-width="5.78908" stroke-linecap="round"/>
<path d="M104.401 98.2658V112.717" stroke="black" stroke-width="5.78908" stroke-linecap="round"/>
<path d="M104.401 112.717L116.001 106.936" stroke="black" stroke-width="5.78908" stroke-linecap="round"/>
<path d="M104.401 112.717L92.8005 106.936" stroke="black" stroke-width="5.78908" stroke-linecap="round"/>
<path d="M104.4 112.717L95.7004 124.277" stroke="black" stroke-width="5.78908" stroke-linecap="round"/>
<path d="M104.401 112.717L113.101 124.277" stroke="black" stroke-width="5.78908" stroke-linecap="round"/>
<path d="M139.2 98.2658V112.717" stroke="black" stroke-width="5.78908" stroke-linecap="round"/>
<path d="M139.2 112.717L150.8 106.936" stroke="black" stroke-width="5.78908" stroke-linecap="round"/>
<path d="M139.201 112.717L127.601 106.936" stroke="black" stroke-width="5.78908" stroke-linecap="round"/>
<path d="M139.2 112.717L130.5 124.277" stroke="black" stroke-width="5.78908" stroke-linecap="round"/>
<path d="M139.2 112.717L147.9 124.277" stroke="black" stroke-width="5.78908" stroke-linecap="round"/>
<path fill-rule="evenodd" clip-rule="evenodd" d="M69.6003 83.815C69.6003 85.4103 68.3011 86.7051 66.7003 86.7051C65.0995 86.7051 63.8003 85.4103 63.8003 83.815C63.8003 82.2196 65.0995 80.9248 66.7003 80.9248C68.3011 80.9248 69.6003 82.2196 69.6003 83.815Z" fill="black"/>
</svg>