<svg width="20" height="20" viewBox="0 0 20 20" fill="none" xmlns="http://www.w3.org/2000/svg">
<circle cx="10" cy="10" r="10" fill="#D9D9D9"/>
<path d="M10 20C11.9778 20 13.9112 19.4135 15.5557 18.3147C17.2002 17.2159 18.4819 15.6541 19.2388 13.8268C19.9957 11.9996 20.1937 9.98891 19.8078 8.04911C19.422 6.1093 18.4696 4.32747 17.0711 2.92894C15.6725 1.53041 13.8907 0.578005 11.9509 0.192151C10.0111 -0.1937 8.00042 0.00433231 6.17317 0.761209C4.34591 1.51809 2.78413 2.79981 1.6853 4.4443C0.586491 6.08879 0 8.02219 0 10C0 12.6522 1.05357 15.1957 2.92893 17.0711C4.8043 18.9464 7.34783 20 10 20Z" fill="#22A079"/>
<path d="M10.8592 10.3124V10.3112C10.8076 10.3148 10.5415 10.3304 9.94912 10.3304C9.4755 10.3304 9.14337 10.3172 9.02586 10.3112V10.3124C7.20451 10.2321 5.846 9.91551 5.846 9.53542C5.846 9.15653 7.20572 8.83878 9.02586 8.75844V9.99704C9.14456 10.0054 9.48629 10.0258 9.95751 10.0258C10.5235 10.0258 10.8064 10.0018 10.8592 9.99704V8.75964C12.6769 8.84117 14.0319 9.15772 14.0319 9.53662C14.0319 9.91551 12.6757 10.2321 10.8592 10.3136V10.3124ZM10.8592 8.63133V7.52343H13.3952V5.83398H6.49109V7.52343H9.02706V8.63133C6.9659 8.72607 5.41675 9.13375 5.41675 9.62296C5.41675 10.1122 6.96711 10.5198 9.02706 10.6158V14.1673H10.8604V10.6158C12.918 10.521 14.4647 10.1134 14.4647 9.62415C14.4647 9.13614 12.918 8.72726 10.8604 8.63254" fill="#FEFEFE"/>
</svg>
