<svg width="48" height="48" viewBox="0 0 48 48" fill="none" xmlns="http://www.w3.org/2000/svg">
<path d="M24 48C28.7467 48 33.3869 46.5924 37.3337 43.9553C41.2804 41.3181 44.3566 37.5699 46.1731 33.1844C47.9896 28.799 48.4649 23.9734 47.5388 19.3179C46.6128 14.6623 44.327 10.3859 40.9705 7.02945C37.6141 3.67299 33.3377 1.38721 28.6822 0.461164C24.0266 -0.46488 19.201 0.0103976 14.8156 1.8269C10.4302 3.64341 6.6819 6.71954 4.04473 10.6663C1.40758 14.6131 0 19.2533 0 24C0 30.3652 2.52857 36.4697 7.02944 40.9706C11.5303 45.4714 17.6348 48 24 48Z" fill="#22A079"/>
<path d="M26.0618 24.7482V24.7453C25.9381 24.7539 25.2993 24.7913 23.8777 24.7913C22.741 24.7913 21.9439 24.7597 21.6619 24.7453V24.7482C17.2906 24.5554 14.0302 23.7957 14.0302 22.8834C14.0302 21.9741 17.2935 21.2115 21.6619 21.0187V23.9913C21.9468 24.0115 22.7669 24.0604 23.8978 24.0604C25.2561 24.0604 25.9352 24.0029 26.0618 23.9913V21.0216C30.4245 21.2173 33.6763 21.977 33.6763 22.8863C33.6763 23.7957 30.4216 24.5554 26.0618 24.7511V24.7482ZM26.0618 20.7136V18.0547H32.1482V14H15.5784V18.0547H21.6648V20.7136C16.718 20.941 13 21.9194 13 23.0935C13 24.2676 16.7209 25.246 21.6648 25.4762V34H26.0647V25.4762C31.0029 25.2489 34.7151 24.2705 34.7151 23.0964C34.7151 21.9252 31.0029 20.9439 26.0647 20.7165" fill="#FEFEFE"/>
</svg>
