<svg width="34" height="40" viewBox="0 0 34 40" fill="none" xmlns="http://www.w3.org/2000/svg">
<path d="M0 0H26L30 4.5L34 9V40H0V0Z" fill="#C4E2FF"/>
<path fill-rule="evenodd" clip-rule="evenodd" d="M16.9909 13.03C16.8443 13.0773 16.7116 13.2153 16.6595 13.3747C16.6348 13.4504 16.6324 13.8657 16.6324 17.9842C16.6324 20.4737 16.6263 22.5106 16.619 22.5106C16.6116 22.5106 16.5756 22.4785 16.539 22.4394C14.0921 19.825 9.53471 22.0984 10.0386 25.682C10.6272 29.8686 16.5512 30.1908 17.5671 26.0915C17.6738 25.6611 17.6651 26.0045 17.6755 21.8034L17.6849 17.9768L18.2322 18.3194C18.5332 18.5078 18.859 18.712 18.9563 18.7732C19.0535 18.8344 19.8454 19.3301 20.716 19.8747C21.5867 20.4194 22.5111 20.9978 22.7703 21.16C23.4429 21.581 23.5862 21.6059 23.8413 21.3461C24.0122 21.1722 23.9998 21.3383 23.9998 19.2174V17.3754L23.9542 17.2797C23.9292 17.2271 23.8799 17.1553 23.8448 17.1201C23.7782 17.0535 23.7322 17.0234 22.9052 16.5066C22.6274 16.333 22.2901 16.122 22.1558 16.0378C22.0215 15.9536 21.0402 15.3396 19.9751 14.6733C18.91 14.0069 17.8923 13.3703 17.7137 13.2584C17.2911 12.9937 17.1964 12.9637 16.9909 13.03Z" fill="#2082DC"/>
<path d="M26 9V0L34 9H26Z" fill="#65B2FA"/>
</svg>
