<svg width="34" height="40" viewBox="0 0 34 40" fill="none" xmlns="http://www.w3.org/2000/svg">
<path d="M0 0H26L30 4.5L34 9V40H0V0Z" fill="#C4E2FF"/>
<path d="M26 9V0L34 9H26Z" fill="#65B2FA"/>
<path d="M8 16C8 14.8969 8.89688 14 10 14H22C23.1031 14 24 14.8969 24 16V26C24 27.1031 23.1031 28 22 28H10C8.89688 28 8 27.1031 8 26V16ZM18.1187 19.3281C17.9781 19.1219 17.7469 19 17.5 19C17.2531 19 17.0188 19.1219 16.8813 19.3281L14.1625 23.3156L13.3344 22.2812C13.1906 22.1031 12.975 22 12.75 22C12.525 22 12.3063 22.1031 12.1656 22.2812L10.1656 24.7812C9.98438 25.0063 9.95 25.3156 10.075 25.575C10.2 25.8344 10.4625 26 10.75 26H13.75H14.75H21.25C21.5281 26 21.7844 25.8469 21.9125 25.6C22.0406 25.3531 22.025 25.0562 21.8687 24.8281L18.1187 19.3281ZM11.5 19C12.3281 19 13 18.3281 13 17.5C13 16.6719 12.3281 16 11.5 16C10.6719 16 10 16.6719 10 17.5C10 18.3281 10.6719 19 11.5 19Z" fill="#2082DC"/>
</svg>
