<svg width="34" height="40" viewBox="0 0 34 40" fill="none" xmlns="http://www.w3.org/2000/svg">
<path d="M0 0H26L30 4.5L34 9V40H0V0Z" fill="#C4E2FF"/>
<path d="M8 16.8333C8 15.8221 8.89688 15 10 15H18C19.1031 15 20 15.8221 20 16.8333V24.1667C20 25.1779 19.1031 26 18 26H10C8.89688 26 8 25.1779 8 24.1667V16.8333ZM25.4719 16.0255C25.7969 16.1859 26 16.4953 26 16.8333V24.1667C26 24.5047 25.7969 24.8141 25.4719 24.9745C25.1469 25.1349 24.7531 25.1177 24.4438 24.9286L21.4438 23.0953L21 22.8232V22.3333V18.6667V18.1768L21.4438 17.9047L24.4438 16.0714C24.75 15.8852 25.1437 15.8651 25.4719 16.0255Z" fill="#2082DC"/>
<path d="M26 9V0L34 9H26Z" fill="#65B2FA"/>
</svg>
