<svg width="16" height="16" viewBox="0 0 16 16" fill="none" xmlns="http://www.w3.org/2000/svg">
<path fill-rule="evenodd" clip-rule="evenodd" d="M2.70797 7.33334H4.68751C4.70583 7.07971 4.73595 6.83028 4.77671 6.58551C5.01449 5.15741 5.60901 3.91679 6.28853 2.94722C4.38514 3.59173 2.96382 5.28157 2.70797 7.33334ZM8.00004 2.93797C7.19662 3.81525 6.36365 5.17266 6.09193 6.80451C6.06319 6.97716 6.04061 7.15352 6.02503 7.33334H9.97506C9.95948 7.15352 9.9369 6.97716 9.90815 6.80451C9.63644 5.17266 8.80346 3.81525 8.00004 2.93797ZM9.95686 8.66668H6.04322C6.19442 9.99154 6.75968 11.4525 8.00004 12.9801C9.2404 11.4525 9.80566 9.99154 9.95686 8.66668ZM6.41711 13.0945C5.35089 11.5682 4.83588 10.07 4.70256 8.66668H2.70797C2.96955 10.7644 4.44937 12.4838 6.41711 13.0945ZM9.58297 13.0945C10.6492 11.5682 11.1642 10.07 11.2975 8.66668H13.2921C13.0305 10.7644 11.5507 12.4838 9.58297 13.0945ZM13.2921 7.33334H11.3126C11.2943 7.07971 11.2641 6.83028 11.2234 6.58551C10.9856 5.15741 10.3911 3.91679 9.71155 2.94722C11.6149 3.59173 13.0363 5.28157 13.2921 7.33334ZM1.33337 8.00001C1.33337 4.31811 4.31814 1.33334 8.00004 1.33334C11.6819 1.33334 14.6667 4.31811 14.6667 8.00001C14.6667 11.6819 11.6819 14.6667 8.00004 14.6667C4.31814 14.6667 1.33337 11.6819 1.33337 8.00001Z" fill="#6E788C"/>
</svg>
