<svg width="55" height="55" viewBox="0 0 55 55" fill="none" xmlns="http://www.w3.org/2000/svg">
<path d="M43.467 6.89062C33.4755 7.04317 8.91618 6.89062 10.9755 6.89062C12.3484 15.1279 19.2128 24.7381 27.2213 26.111C31.5062 26.8455 43.467 15.3567 43.467 6.89062Z" fill="#FFE100" fill-opacity="0.48"/>
<path d="M19.0995 6.8935C18.9496 6.89167 18.9426 6.89062 19.0991 6.89062C19.0992 6.89158 19.0993 6.89254 19.0995 6.8935C20.8049 6.91432 41.011 7.03726 49.6454 6.89062C49.6454 15.7444 41.4081 27.0262 30.1962 27.0262C22.5324 27.0262 20.3902 15.5077 19.0995 6.8935Z" fill="#FFE100" fill-opacity="0.48"/>
<path d="M10.8542 47.1953C20.8458 47.0428 45.4051 47.1953 43.3458 47.1953C41.9729 38.958 35.1085 29.3479 27.1 27.975C22.8151 27.2404 10.8542 38.7292 10.8542 47.1953Z" fill="#FFE100" fill-opacity="0.48"/>
<path d="M19.8995 47.1621C29.2929 47.0026 52.3819 47.1621 50.4459 47.1621C49.1552 38.5476 42.3233 27.0265 31.569 27.0265C27.468 27.0265 19.8995 38.3083 19.8995 47.1621Z" fill="#FFE100" fill-opacity="0.48"/>
<path d="M33.9717 13.5264H20.4717M45.2217 47.2764H42.9717M42.9717 47.2764H11.4717M42.9717 47.2764C42.9717 41.6284 40.244 36.3281 35.6481 33.0452L27.2217 27.0264M11.4717 47.2764H9.22168M11.4717 47.2764C11.4717 41.6284 14.1993 36.3281 18.7953 33.0452L27.2217 27.0264M45.2217 6.77637H42.9717M42.9717 6.77637H11.4717M42.9717 6.77637C42.9717 12.4244 40.244 17.7247 35.6481 21.0075L27.2217 27.0264M11.4717 6.77637H9.22168M11.4717 6.77637C11.4717 12.4244 14.1993 17.7247 18.7953 21.0075L27.2217 27.0264" stroke="black" stroke-width="4" stroke-linecap="round" stroke-linejoin="round"/>
</svg>
