<svg width="55" height="54" viewBox="0 0 55 54" fill="none" xmlns="http://www.w3.org/2000/svg">
<path d="M25.5564 46.5356C26.0184 46.7763 26.2494 46.8967 26.5699 46.959C26.8195 47.0076 27.1795 47.0076 27.4292 46.959C27.7496 46.8967 27.9807 46.7763 28.4427 46.5356C32.7146 44.3098 44.9996 37.0364 45 26.9989L45.0005 18.4885C45.0006 16.6896 45.0006 15.7901 44.7064 15.0169C44.4466 14.3339 44.0243 13.7245 43.476 13.2413C42.8554 12.6943 42.0133 12.3785 40.329 11.7469L28.2655 7.22287C27.7977 7.04746 27.5639 6.95975 27.3233 6.92498C27.1099 6.89415 26.8931 6.89415 26.6797 6.92498C26.4391 6.95975 26.2052 7.04746 25.7375 7.22287L13.6735 11.7469C11.9892 12.3785 11.147 12.6943 10.5263 13.2413C9.97805 13.7245 9.55569 14.3339 9.29576 15.0169C9.00152 15.7901 9.00147 16.6896 9.00138 18.4885L9.00097 26.9989C9.00047 37.0364 21.2847 44.3098 25.5564 46.5356Z" fill="#3CD399" fill-opacity="0.35"/>
<path d="M30.2527 46.5356C30.7147 46.7763 30.9457 46.8967 31.2662 46.959C31.5158 47.0076 31.8758 47.0076 32.1254 46.959C32.4459 46.8967 32.6769 46.7763 33.139 46.5356C37.4109 44.3098 49.6958 37.0364 49.6963 26.9989L49.6968 18.4885C49.6968 16.6896 49.6969 15.7901 49.4027 15.0169C49.1429 14.3339 48.7206 13.7245 48.1723 13.2413C47.5517 12.6943 46.7096 12.3785 45.0253 11.7469L32.9618 7.22287C32.494 7.04746 32.2602 6.95975 32.0196 6.92498C31.8062 6.89415 31.5894 6.89415 31.376 6.92498C31.1354 6.95975 30.9015 7.04746 30.4338 7.22287L18.3698 11.7469C16.6854 12.3785 15.8433 12.6943 15.2226 13.2413C14.6743 13.7245 14.252 14.3339 13.992 15.0169C13.6978 15.7901 13.6978 16.6896 13.6977 18.4885L13.6973 26.9989C13.6968 37.0364 25.981 44.3098 30.2527 46.5356Z" fill="#3CD399" fill-opacity="0.35"/>
<path d="M20.2507 26.9989L24.7503 31.4989L33.7506 22.4989M45 26.9989C44.9996 37.0364 32.7146 44.3098 28.4427 46.5356C27.9807 46.7763 27.7496 46.8967 27.4292 46.959C27.1795 47.0076 26.8195 47.0076 26.5699 46.959C26.2494 46.8967 26.0184 46.7763 25.5564 46.5356C21.2847 44.3098 9.00047 37.0364 9.00097 26.9989L9.00138 18.4885C9.00147 16.6896 9.00152 15.7901 9.29576 15.0169C9.55569 14.3339 9.97805 13.7245 10.5263 13.2413C11.147 12.6943 11.9892 12.3785 13.6735 11.7469L25.7375 7.22287C26.2052 7.04746 26.4391 6.95975 26.6797 6.92498C26.8931 6.89415 27.1099 6.89415 27.3233 6.92498C27.5639 6.95975 27.7977 7.04746 28.2655 7.22287L40.329 11.7469C42.0133 12.3785 42.8554 12.6943 43.476 13.2413C44.0243 13.7245 44.4466 14.3339 44.7064 15.0169C45.0006 15.7901 45.0006 16.6896 45.0005 18.4885L45 26.9989Z" stroke="black" stroke-width="4" stroke-linecap="round" stroke-linejoin="round"/>
</svg>
