<svg width="55" height="55" viewBox="0 0 55 55" fill="none" xmlns="http://www.w3.org/2000/svg">
<path d="M43.3199 26.5005C43.3199 36.7914 34.9387 45.1339 24.5999 45.1339C14.2611 45.1339 5.87988 36.7914 5.87988 26.5005C5.87988 16.2096 14.2611 7.86719 24.5999 7.86719C34.9387 7.86719 43.3199 16.2096 43.3199 26.5005Z" fill="#FF4650" fill-opacity="0.35"/>
<path d="M50.9997 26.5005C50.9997 37.8469 41.7589 47.0449 30.3597 47.0449C18.9606 47.0449 9.71973 37.8469 9.71973 26.5005C9.71973 15.1541 18.9606 5.95605 30.3597 5.95605C41.7589 5.95605 50.9997 15.1541 50.9997 26.5005Z" fill="#FF4650" fill-opacity="0.35"/>
<path d="M30.48 20.6477L18.72 32.3532M18.72 20.6477L30.48 32.3532M44.2 26.5005C44.2 37.2751 35.4248 46.0097 24.6 46.0097C13.7752 46.0097 5 37.2751 5 26.5005C5 15.7258 13.7752 6.99121 24.6 6.99121C35.4248 6.99121 44.2 15.7258 44.2 26.5005Z" stroke="#FF4650" stroke-width="4" stroke-linecap="round" stroke-linejoin="round"/>
</svg>
