<svg width="46" height="46" viewBox="0 0 46 46" fill="none" xmlns="http://www.w3.org/2000/svg">
<path d="M32.8 44H11.1732C9.75963 44 9.05284 44 8.72556 43.7205C8.44158 43.4779 8.29088 43.1141 8.32018 42.7418C8.35395 42.3127 8.85372 41.8129 9.85327 40.8134L29.6935 20.9732C30.6175 20.0492 31.0795 19.5871 31.6123 19.414C32.0809 19.2618 32.5857 19.2618 33.0544 19.414C33.5871 19.5871 34.0492 20.0492 34.9732 20.9732L44 30V32.8M32.8 44C36.7204 44 38.6806 44 40.1779 43.237C41.4951 42.5659 42.5659 41.4951 43.237 40.1779C44 38.6806 44 36.7204 44 32.8M32.8 44H13.2C9.27963 44 7.31945 44 5.82207 43.237C4.50493 42.5659 3.43407 41.4951 2.76295 40.1779C2 38.6805 2 36.7204 2 32.8V13.2C2 9.27963 2 7.31945 2.76295 5.82207C3.43407 4.50493 4.50493 3.43407 5.82207 2.76295C7.31945 2 9.27963 2 13.2 2H32.8C36.7204 2 38.6805 2 40.1779 2.76295C41.4951 3.43407 42.5659 4.50493 43.237 5.82207C44 7.31945 44 9.27963 44 13.2V32.8M19.5 14.8333C19.5 17.4107 17.4107 19.5 14.8333 19.5C12.256 19.5 10.1667 17.4107 10.1667 14.8333C10.1667 12.256 12.256 10.1667 14.8333 10.1667C17.4107 10.1667 19.5 12.256 19.5 14.8333Z" stroke-width="3" stroke-linecap="round" stroke-linejoin="round"/>
</svg>
